<svg width="33" height="33" viewBox="0 0 33 33" fill="none" xmlns="http://www.w3.org/2000/svg">
<path d="M9.78248 15.6052C9.78249 15.6053 9.7825 15.6053 9.78251 15.6053L9.33821 15.7784L9.33816 15.7785L8.85116 15.9682L9.33809 15.7784L9.33814 15.7784L9.78248 15.6052ZM9.78248 15.6052C9.73156 15.4746 9.67663 15.3459 9.61786 15.2194L10.0603 15.4458L9.78248 15.6052ZM19.9497 11.6123L19.9497 11.6123L19.9497 11.6123ZM19.9497 11.6123L19.9327 11.7017L19.95 11.6107L19.9497 11.6123ZM12.0416 12.0634C10.9127 12.6803 9.97413 13.5848 9.3381 14.6822C8.70206 13.5848 7.76348 12.6803 6.63461 12.0634C7.76348 11.4465 8.70206 10.542 9.33811 9.44467C9.97413 10.542 10.9127 11.4465 12.0416 12.0634ZM9.61786 8.90748C9.67663 8.78094 9.73156 8.65227 9.78247 8.52158L9.61786 8.90748ZM20.2788 25.2628C19.1808 22.7065 17.0639 20.6785 14.4195 19.6108C17.0639 18.5432 19.1808 16.5152 20.2788 13.9589C21.3768 16.5152 23.4937 18.5432 26.1381 19.6108C23.4937 20.6785 21.3768 22.7065 20.2788 25.2628Z" stroke="#EAE8E1" stroke-width="2"/>
</svg>
