<svg width="131" height="23" viewBox="0 0 131 23" fill="none" xmlns="http://www.w3.org/2000/svg">
<path fill-rule="evenodd" clip-rule="evenodd" d="M1.2213 5.52569C0.906783 5.4154 0.579944 5.32864 0.243123 5.2676C0.218394 5.26313 0.193611 5.25879 0.168773 5.25458C-0.0562576 5.2165 -0.0562576 4.91032 0.168773 4.87224C0.193611 4.86803 0.218394 4.86369 0.243123 4.85922C0.579944 4.79818 0.906783 4.71142 1.2213 4.60113C1.40952 4.53512 1.59334 4.46072 1.77224 4.37832C3.01114 3.80789 4.01447 2.85619 4.61587 1.68104C4.7027 1.51135 4.78118 1.337 4.85073 1.15846C4.967 0.860122 5.05847 0.550102 5.12283 0.230613C5.12753 0.207156 5.13211 0.183649 5.13655 0.160088C5.1767 -0.0533627 5.49948 -0.0533627 5.53963 0.160088C5.54408 0.183649 5.54865 0.207156 5.55336 0.230613C5.61771 0.550102 5.70918 0.860122 5.82545 1.15846C5.89504 1.33699 5.97348 1.51135 6.06034 1.68104C6.66172 2.85619 7.66505 3.80789 8.90396 4.37832C9.08286 4.46072 9.26667 4.53512 9.45488 4.60113C9.76941 4.71142 10.0962 4.79818 10.4331 4.85922C10.4578 4.86369 10.4826 4.86803 10.5074 4.87224C10.7325 4.91032 10.7325 5.2165 10.5074 5.25458C10.4826 5.25879 10.4578 5.26313 10.4331 5.2676C10.0962 5.32864 9.76941 5.4154 9.45488 5.52569C9.26667 5.5917 9.08286 5.6661 8.90396 5.7485C7.66505 6.31892 6.66172 7.27062 6.06034 8.44579C5.97348 8.61548 5.89504 8.78983 5.82545 8.96836C5.70918 9.2667 5.61771 9.57671 5.55336 9.89622C5.54865 9.91965 5.54408 9.94317 5.53963 9.96672C5.49948 10.1802 5.1767 10.1802 5.13655 9.96672C5.13211 9.94317 5.12753 9.91965 5.12283 9.89622C5.05847 9.57671 4.967 9.2667 4.85073 8.96836C4.78118 8.78983 4.7027 8.61548 4.61587 8.44579C4.01447 7.27062 3.01114 6.31892 1.77224 5.7485C1.59334 5.6661 1.40953 5.5917 1.2213 5.52569ZM8.74075 13.1105C8.52077 13.0543 8.29775 13.0049 8.07191 12.9627C8.0366 12.9562 8.00126 12.9498 7.96585 12.9435L7.95511 12.9416L7.94059 12.9391C7.91824 12.9352 7.89371 12.9311 7.84464 12.9227L7.8275 12.9198C7.46762 12.8553 7.46762 12.3664 7.8275 12.3018L7.84464 12.2989C7.89371 12.2906 7.91824 12.2865 7.94059 12.2826L7.95511 12.2801L7.96585 12.2782C8.00126 12.2719 8.0366 12.2655 8.07187 12.2589C8.29772 12.2167 8.52077 12.1674 8.74075 12.1112C8.92863 12.0631 9.11429 12.0101 9.29757 11.9521C12.2627 11.0146 14.5959 8.8014 15.5844 5.98885C15.6454 5.81501 15.7014 5.6389 15.752 5.46066C15.8113 5.25203 15.8633 5.04045 15.9078 4.82623C15.9147 4.79277 15.9215 4.75925 15.9281 4.72566L15.9301 4.71547L15.9327 4.7017C15.9368 4.68075 15.9411 4.65777 15.9497 4.61226L15.95 4.61069L15.953 4.59443C16.0211 4.25307 16.5365 4.25307 16.6046 4.59443L16.6076 4.61069C16.6164 4.65723 16.6208 4.6805 16.6249 4.7017L16.6275 4.71547L16.6295 4.72566C16.6361 4.75925 16.6429 4.79277 16.6498 4.82623C16.6943 5.04048 16.7463 5.25203 16.8056 5.46066C16.8562 5.6389 16.9122 5.81501 16.9732 5.98885C17.9616 8.8014 20.2949 11.0146 23.26 11.9521C23.4433 12.0101 23.629 12.0631 23.8169 12.1112C24.0368 12.1674 24.2599 12.2167 24.4857 12.2589C24.521 12.2655 24.5563 12.2719 24.5917 12.2782L24.6025 12.2801L24.617 12.2826C24.6393 12.2865 24.6639 12.2906 24.7129 12.2989L24.7301 12.3018C25.09 12.3664 25.09 12.8553 24.7301 12.9198L24.7129 12.9227L24.661 12.9315L24.617 12.9391L24.6025 12.9416L24.5917 12.9435C24.5563 12.9498 24.521 12.9562 24.4857 12.9627C24.2599 13.0049 24.0368 13.0543 23.8169 13.1105C23.629 13.1585 23.4433 13.2116 23.26 13.2695C20.2949 14.2071 17.9616 16.4203 16.9732 19.2328C16.9122 19.4067 16.8562 19.5828 16.8056 19.761C16.7463 19.9697 16.6943 20.1812 16.6498 20.3955C16.6429 20.4289 16.6361 20.4624 16.6295 20.496L16.6275 20.5062L16.6249 20.52L16.6189 20.551L16.608 20.6092L16.6046 20.6273C16.5365 20.9686 16.0211 20.9686 15.953 20.6273L15.95 20.611C15.9412 20.5645 15.9368 20.5411 15.9327 20.52L15.9301 20.5062L15.9281 20.496C15.9215 20.4624 15.9147 20.4289 15.9078 20.3955C15.8633 20.1812 15.8113 19.9697 15.752 19.761C15.7014 19.5828 15.6454 19.4067 15.5844 19.2328C14.5959 16.4203 12.2627 14.2071 9.29757 13.2695C9.11429 13.2116 8.92863 13.1585 8.74075 13.1105ZM3.77791 19.6583C4.15616 19.7268 4.51446 19.8468 4.84453 20.0102C4.99137 20.0829 5.13261 20.1642 5.26751 20.2534C5.64344 20.502 5.9703 20.8121 6.23241 21.1687C6.32647 21.2966 6.4122 21.4306 6.48882 21.5699C6.66115 21.883 6.78757 22.2228 6.85981 22.5816C6.86279 22.5964 6.86571 22.6113 6.8685 22.6262C6.89386 22.761 7.09772 22.761 7.12308 22.6262C7.12587 22.6113 7.12875 22.5964 7.13174 22.5816C7.20401 22.2228 7.33043 21.883 7.50273 21.5699C7.57938 21.4306 7.66511 21.2966 7.75917 21.1687C8.02125 20.8121 8.34814 20.502 8.72407 20.2534C8.85898 20.1642 9.00021 20.0829 9.14701 20.0102C9.47713 19.8468 9.83542 19.7268 10.2137 19.6583C10.2293 19.6555 10.2449 19.6527 10.2606 19.65C10.4027 19.626 10.4027 19.4326 10.2606 19.4086C10.2449 19.4059 10.2293 19.4032 10.2137 19.4004C9.83542 19.3318 9.47713 19.2119 9.14701 19.0485C9.00021 18.9757 8.85898 18.8945 8.72407 18.8052C8.34814 18.5566 8.02125 18.2465 7.75917 17.89C7.66511 17.762 7.57938 17.628 7.50273 17.4888C7.33043 17.1757 7.20401 16.8358 7.13174 16.477C7.12875 16.4622 7.12587 16.4474 7.12308 16.4325C7.09772 16.2977 6.89386 16.2977 6.8685 16.4325C6.86571 16.4474 6.86279 16.4622 6.85981 16.477C6.78757 16.8358 6.66115 17.1757 6.48882 17.4888C6.4122 17.628 6.32647 17.762 6.23241 17.89C5.9703 18.2465 5.64344 18.5566 5.26751 18.8052C5.13261 18.8945 4.99137 18.9757 4.84453 19.0485C4.51446 19.2119 4.15616 19.3318 3.77791 19.4004C3.7623 19.4032 3.74665 19.4059 3.73094 19.4086C3.58884 19.4326 3.58884 19.626 3.73094 19.65C3.74665 19.6527 3.7623 19.6555 3.77791 19.6583Z" fill="#DE5327"/>
<path d="M40.792 19H38.2V2.92H41.728L46.36 12.232L47.824 15.568H48.016L49.432 12.232L54.016 2.92H57.544V19H54.952V9.136L55.048 6.808H54.856L53.872 9.136L49.432 18.04H46.312L41.872 9.136L40.888 6.808H40.696L40.792 9.136V19ZM62.734 19.24C60.262 19.24 58.702 18.088 58.702 16.12C58.702 14.272 60.19 13.312 62.542 13.048L67.966 12.472V11.776C67.966 9.808 67.102 9.112 64.822 9.112C62.614 9.112 61.534 9.832 61.534 11.584V11.68H58.966V11.584C58.966 8.872 61.222 6.832 65.014 6.832C68.806 6.832 70.51 8.896 70.51 11.752V19H68.134V16.024H67.966C67.342 18.04 65.446 19.24 62.734 19.24ZM61.294 15.952C61.294 16.912 61.942 17.368 63.43 17.368C66.142 17.368 67.966 16.36 67.966 14.008L63.286 14.536C61.942 14.704 61.294 15.016 61.294 15.952ZM74.6958 19H72.1038V7.072H74.4798V10.288H74.6478C75.0078 8.368 76.3038 6.832 78.7518 6.832C81.4638 6.832 82.6398 8.776 82.6398 11.032V12.592H80.0718V11.536C80.0718 9.832 79.3518 9.04 77.5758 9.04C75.5358 9.04 74.6958 10.168 74.6958 12.304V19ZM89.1878 19.24C85.3478 19.24 83.1638 17.728 83.1638 14.968V14.896H85.7558V15.088C85.7558 16.648 86.6918 17.152 89.1878 17.152C91.5158 17.152 92.2118 16.672 92.2118 15.616C92.2118 14.632 91.6358 14.32 89.9318 14.08L86.6678 13.648C84.4118 13.36 83.0438 12.4 83.0438 10.408C83.0438 8.32 84.9398 6.832 88.6118 6.832C92.2598 6.832 94.4678 8.296 94.4678 11.128V11.2H91.8998V11.056C91.8998 9.64 91.1798 8.896 88.5398 8.896C86.3558 8.896 85.5878 9.376 85.5878 10.504C85.5878 11.44 86.0678 11.776 87.8678 12.016L90.6278 12.4C93.4598 12.76 94.7558 13.72 94.7558 15.688C94.7558 17.92 92.5478 19.24 89.1878 19.24Z" fill="#EAE8E1"/>
<path d="M117.704 19.24C115.232 19.24 113.672 18.088 113.672 16.12C113.672 14.272 115.16 13.312 117.512 13.048L122.936 12.472V11.776C122.936 9.808 122.072 9.112 119.792 9.112C117.584 9.112 116.504 9.832 116.504 11.584V11.68H113.936V11.584C113.936 8.872 116.192 6.832 119.984 6.832C123.776 6.832 125.48 8.896 125.48 11.752V19H123.104V16.024H122.936C122.312 18.04 120.416 19.24 117.704 19.24ZM116.264 15.952C116.264 16.912 116.912 17.368 118.4 17.368C121.112 17.368 122.936 16.36 122.936 14.008L118.256 14.536C116.912 14.704 116.264 15.016 116.264 15.952ZM129.666 5.68H127.074V2.92H129.666V5.68ZM129.666 19H127.074V7.072H129.666V19Z" fill="#EAE8E1"/>
<ellipse cx="104.543" cy="15.5206" rx="3.54296" ry="3.52062" fill="#DE5327"/>
</svg>
