<svg width="16" height="16" viewBox="0 0 16 16" fill="none" xmlns="http://www.w3.org/2000/svg">
<g clip-path="url(#clip0_315_1687)">
<path d="M6.6665 9.33333L13.9998 2" stroke="#DE5327" stroke-linecap="round" stroke-linejoin="round"/>
<path d="M14.0005 2L9.6672 14C9.63795 14.0638 9.59099 14.1179 9.5319 14.1558C9.47281 14.1938 9.40408 14.2139 9.33387 14.2139C9.26366 14.2139 9.19492 14.1938 9.13583 14.1558C9.07675 14.1179 9.02979 14.0638 9.00054 14L6.6672 9.33333L2.00054 7C1.93671 6.97075 1.88262 6.92379 1.8447 6.8647C1.80678 6.80561 1.78662 6.73688 1.78662 6.66667C1.78662 6.59646 1.80678 6.52772 1.8447 6.46863C1.88262 6.40954 1.93671 6.36258 2.00054 6.33333L14.0005 2Z" stroke="#DE5327" stroke-linecap="round" stroke-linejoin="round"/>
</g>
<defs>
<clipPath id="clip0_315_1687">
<rect width="16" height="16" fill="white"/>
</clipPath>
</defs>
</svg>
