<svg width="1920" height="490" viewBox="0 0 1920 490" fill="none" xmlns="http://www.w3.org/2000/svg">
<path opacity="0.1" d="M1888.18 -190.997L1873.27 -196M1888.18 -190.997H1843.98M1888.18 -190.997L1903.59 -185.83M1888.18 -190.997H1919.48M1873.27 -196L1878.69 -195.998L1884.06 -195.987L1889.32 -195.957L1894.42 -195.897L1899.29 -195.799L1903.89 -195.653L1908.16 -195.449L1912.13 -195.19L1915.53 -194.831L1918.63 -194.415L1919.48 -194.269V-190.997M1873.27 -196H1829.78M1829.78 -196H1786.29M1829.78 -196L1843.98 -190.997M1786.29 -196H1742.8M1786.29 -196L1799.78 -190.997M1742.8 -196H1699.31M1742.8 -196L1755.58 -190.997M1699.31 -196H1655.82M1699.31 -196L1711.39 -190.997M1655.82 -196H1612.33M1655.82 -196L1667.19 -190.997M1612.33 -196H1568.84M1612.33 -196L1622.99 -190.997M1568.84 -196H1525.36M1568.84 -196L1578.79 -190.997M1525.36 -196H1481.87M1525.36 -196L1534.59 -190.997M1481.87 -196H1438.38M1481.87 -196L1490.39 -190.997M1438.38 -196H1394.89M1438.38 -196L1446.19 -190.997M1394.89 -196H1351.4M1394.89 -196L1401.99 -190.997M1351.4 -196H1307.91M1351.4 -196L1352.98 -194.764L1355.37 -192.893L1357.79 -190.997M1307.91 -196H1264.42M1307.91 -196L1309.31 -194.764L1313.59 -190.997M1264.42 -196H1220.93M1264.42 -196L1269.39 -190.997M1220.93 -196H1177.44M1220.93 -196L1222.51 -194.143L1224.12 -192.264L1224.65 -191.632L1225.2 -190.997M1177.44 -196H1133.96M1177.44 -196L1178.76 -194.143L1179.21 -193.519L1179.65 -192.893L1181 -190.997M1133.96 -196H1090.47M1133.96 -196L1136.8 -190.997M1090.47 -196L1090.73 -195.384L1090.99 -194.764L1092.33 -191.632L1092.6 -190.997M1090.47 -196H1046.98M1046.98 -196H1003.49M1046.98 -196L1048.4 -190.997M1003.49 -196H960M1003.49 -196L1003.75 -194.143L1004.2 -190.997M960 -196H916.511M960 -196V-190.997M916.511 -196H873.022M916.511 -196L916.248 -194.143L915.801 -190.997M873.022 -196H829.533M873.022 -196L871.602 -190.997M829.533 -196L829.27 -195.384L829.008 -194.764L827.673 -191.632L827.402 -190.997M829.533 -196H786.045M786.045 -196H742.555M786.045 -196L783.564 -191.632L783.203 -190.997M742.555 -196H699.067M742.555 -196L741.238 -194.143L740.794 -193.519L739.903 -192.264L739.455 -191.632L739.004 -190.997M699.067 -196H655.578M699.067 -196L697.485 -194.143L695.883 -192.264L695.346 -191.632L694.805 -190.997M655.578 -196H612.089M655.578 -196L650.607 -190.997M612.089 -196H568.6M612.089 -196L610.686 -194.764L606.407 -190.997M568.6 -196H525.111M568.6 -196L562.208 -190.997M525.111 -196H481.623M525.111 -196L518.009 -190.997M481.623 -196H438.133M481.623 -196L473.81 -190.997M438.133 -196H394.644M438.133 -196L429.611 -190.997M394.644 -196H351.156M394.644 -196L385.411 -190.997M351.156 -196H307.667M351.156 -196L341.212 -190.997M307.667 -196H264.178M307.667 -196L297.013 -190.997M264.178 -196H220.689M264.178 -196L252.814 -190.997M220.689 -196H177.201M220.689 -196L208.615 -190.997M177.201 -196H133.711M177.201 -196L164.415 -190.997M133.711 -196H90.2224M133.711 -196L120.217 -190.997M90.2224 -196H46.7338M90.2224 -196L76.0181 -190.997M46.7338 -196L41.3068 -195.998L35.9356 -195.987L30.6765 -195.957L25.5822 -195.897L20.7088 -195.799L16.1083 -195.653L11.8356 -195.449L7.86976 -195.19L4.4666 -194.831L1.36827 -194.415L0.516728 -194.269V-190.997M46.7338 -196L31.8189 -190.997M120.217 -190.997H164.415M120.217 -190.997H76.0181M120.217 -190.997L106.274 -185.83M164.415 -190.997L151.207 -185.83M164.415 -190.997H208.615M297.013 -190.997H341.212M297.013 -190.997H252.814M297.013 -190.997L294.296 -189.721L286.006 -185.83M341.212 -190.997L330.939 -185.83M341.212 -190.997H385.411M473.81 -190.997H518.009M473.81 -190.997H429.611M473.81 -190.997L471.817 -189.721L470.813 -189.08L465.737 -185.83M518.009 -190.997L517.105 -190.361L516.197 -189.721L510.671 -185.83M518.009 -190.997H562.208M650.607 -190.997L649.973 -190.361L645.469 -185.83M650.607 -190.997H694.805M650.607 -190.997H606.407M694.805 -190.997L693.718 -189.721L693.171 -189.08L692.622 -188.435L690.402 -185.83M694.805 -190.997H739.004M827.402 -190.997H871.602M827.402 -190.997H783.203M827.402 -190.997L825.202 -185.83M871.602 -190.997L871.421 -190.361L871.24 -189.721L871.057 -189.08L870.505 -187.138L870.134 -185.83M871.602 -190.997H915.801M1004.2 -190.997H1048.4M1004.2 -190.997H960M1004.2 -190.997L1004.93 -185.83M1048.4 -190.997L1048.58 -190.361L1048.76 -189.721L1048.94 -189.08L1049.87 -185.83M1048.4 -190.997H1092.6M1181 -190.997H1225.2M1181 -190.997H1136.8M1181 -190.997L1181.9 -189.721L1183.74 -187.138L1184.2 -186.486L1184.67 -185.83M1225.2 -190.997L1226.28 -189.721L1226.83 -189.08L1227.38 -188.435L1229.6 -185.83M1225.2 -190.997H1269.39M1357.79 -190.997H1401.99M1357.79 -190.997H1313.59M1357.79 -190.997L1359.42 -189.721L1360.24 -189.08L1364.4 -185.83M1401.99 -190.997L1402.9 -190.361L1403.8 -189.721L1409.33 -185.83M1401.99 -190.997H1446.19M1534.59 -190.997H1578.79M1534.59 -190.997H1490.39M1534.59 -190.997L1536.94 -189.721L1538.13 -189.08L1544.13 -185.83M1578.79 -190.997L1589.06 -185.83M1578.79 -190.997H1622.99M1711.39 -190.997H1755.58M1711.39 -190.997H1667.19M1711.39 -190.997L1723.86 -185.83M1755.58 -190.997L1768.79 -185.83M1755.58 -190.997H1799.78M0.361812 -144.217H0.516728M44.8488 -144.217L61.7238 -150.819M44.8488 -144.217L27.3273 -137.362M44.8488 -144.217H95.6905M44.8488 -144.217H0.516728M61.7238 -150.819H11.8196M61.7238 -150.819L77.988 -157.182M61.7238 -150.819H111.628M11.8196 -150.819L28.9874 -157.182M11.8196 -150.819H0.516728M11.8196 -150.819L0.516728 -146.63M61.5219 -169.242H108.81M61.5219 -169.242L76.9516 -174.961M61.5219 -169.242H14.2343M61.5219 -169.242L45.5435 -163.319M108.81 -169.242L123.429 -174.961M108.81 -169.242L93.6736 -163.319M108.81 -169.242H156.099M76.9516 -174.961H123.429M76.9516 -174.961L91.8605 -180.487M76.9516 -174.961H30.4756M123.429 -174.961H169.905M123.429 -174.961L137.552 -180.487M0.0299903 -40.0067H0.516728M41.0539 -40.0067L62.8142 -50.9527M41.0539 -40.0067L18.2122 -28.5159M41.0539 -40.0067H106.694M41.0539 -40.0067H0.516728M62.8142 -50.9527L83.568 -61.3924M62.8142 -50.9527H126.899M62.8142 -50.9527H0.516728M20.9657 -61.3924H83.568M20.9657 -61.3924L42.1963 -71.3601M20.9657 -61.3924H0.516728M20.9657 -61.3924L0.516728 -51.7917M62.4874 -80.8873H122.321M62.4874 -80.8873L81.9009 -90.0016M62.4874 -80.8873H2.65358M62.4874 -80.8873L42.1963 -71.3601M122.321 -80.8873L140.441 -90.0016M122.321 -80.8873L103.382 -71.3601M122.321 -80.8873H182.156M81.9009 -90.0016H140.441M81.9009 -90.0016H23.3614M81.9009 -90.0016L100.493 -98.7305M140.441 -90.0016L157.793 -98.7305M140.441 -90.0016H198.981M135.41 -115.125H190.382M135.41 -115.125L151.826 -122.832M135.41 -115.125H80.4377M135.41 -115.125L118.313 -107.098M190.382 -115.125L205.704 -122.832M190.382 -115.125L174.426 -107.098M190.382 -115.125H245.356M151.826 -122.832H205.704M151.826 -122.832H97.9483M151.826 -122.832L167.602 -130.238M205.704 -122.832L220.428 -130.238M205.704 -122.832H259.583M197.374 -144.217H248.215M197.374 -144.217L211.436 -150.819M197.374 -144.217H146.532M197.374 -144.217L182.773 -137.362M248.215 -144.217L261.34 -150.819M248.215 -144.217L234.588 -137.362M248.215 -144.217H299.057M211.436 -150.819H261.34M211.436 -150.819H161.532M211.436 -150.819L224.99 -157.182M261.34 -150.819L273.99 -157.182M261.34 -150.819H311.244M250.675 -169.242H297.964M250.675 -169.242L262.856 -174.961M250.675 -169.242H203.387M250.675 -169.242L238.061 -163.319M297.964 -169.242L309.332 -174.961M297.964 -169.242L286.19 -163.319M297.964 -169.242H345.252M262.856 -174.961H309.332M262.856 -174.961L274.627 -180.487M262.856 -174.961H216.38M309.332 -174.961H355.809M309.332 -174.961L320.318 -180.487M34.1456 149.766L64.7711 128.197M34.1456 149.766L1.34928 172.862M34.1456 149.766H126.731M34.1456 149.766H0.516728M64.7711 128.197L93.4367 108.01M64.7711 128.197H154.294M64.7711 128.197H0.516728M64.1495 71.2794H145.591M64.1495 71.2794L90.3204 54.5246M64.1495 71.2794L36.3544 89.0754M64.1495 71.2794H0.516728M145.591 71.2794L169.382 54.5246M145.591 71.2794L120.322 89.0754M145.591 71.2794H227.032M90.3204 54.5246H169.382M90.3204 54.5246H11.2589M90.3204 54.5246L115.006 38.7196M169.382 54.5246L191.824 38.7196M169.382 54.5246H248.444M160.398 9.65796H233.089M160.398 9.65796L181.313 -3.73227M160.398 9.65796H87.7068M160.398 9.65796L138.329 23.7886M233.089 9.65796L252.103 -3.73227M233.089 9.65796L213.025 23.7886M233.089 9.65796H305.78M181.313 -3.73227H252.103M181.313 -3.73227H110.523M181.313 -3.73227L201.162 -16.4402M252.103 -3.73227L270.148 -16.4402M252.103 -3.73227H322.892M237.971 -40.0067H303.61M237.971 -40.0067L255.069 -50.9527M237.971 -40.0067H172.332M237.971 -40.0067L220.025 -28.5159M303.61 -40.0067L319.153 -50.9527M303.61 -40.0067L287.294 -28.5159M303.61 -40.0067H369.249M255.069 -50.9527H319.153M255.069 -50.9527H190.984M255.069 -50.9527L271.375 -61.3924M319.153 -50.9527L333.977 -61.3924M319.153 -50.9527H383.238M301.824 -80.8873H361.658M301.824 -80.8873L316.061 -90.0016M301.824 -80.8873H241.99M301.824 -80.8873L286.943 -71.3601M361.658 -80.8873L374.601 -90.0016M361.658 -80.8873L348.131 -71.3601M361.658 -80.8873H421.492M316.061 -90.0016H374.601M316.061 -90.0016H257.521M316.061 -90.0016L329.694 -98.7305M374.601 -90.0016L386.996 -98.7305M374.601 -90.0016H433.141M355.301 -115.125H410.273M355.301 -115.125L367.339 -122.832M355.301 -115.125H300.328M355.301 -115.125L342.763 -107.098M410.273 -115.125L411.666 -116.105L421.217 -122.832M410.273 -115.125L398.876 -107.098M410.273 -115.125H465.246M367.339 -122.832H421.217M367.339 -122.832H313.461M367.339 -122.832L378.908 -130.238M421.217 -122.832L431.735 -130.238M421.217 -122.832H475.096M400.74 -144.217H451.583M400.74 -144.217L411.054 -150.819M400.74 -144.217H349.899M400.74 -144.217L390.033 -137.362M451.583 -144.217L460.958 -150.819M451.583 -144.217L447.976 -141.676L441.848 -137.362M451.583 -144.217H502.424M411.054 -150.819H460.958M411.054 -150.819H361.15M411.054 -150.819L420.992 -157.182M460.958 -150.819L469.993 -157.182M460.958 -150.819H510.862M439.828 -169.242H487.117M439.828 -169.242L448.761 -174.961M439.828 -169.242H392.541M439.828 -169.242L430.578 -163.319M487.117 -169.242L493.234 -173.55L494.238 -174.257L495.238 -174.961M487.117 -169.242L478.707 -163.319M487.117 -169.242H534.405M448.761 -174.961H495.238M448.761 -174.961L457.393 -180.487M448.761 -174.961H402.285M495.238 -174.961H541.714M495.238 -174.961L503.084 -180.487M67.6906 395.461H195.164M67.6906 395.461L107.829 355.079M67.6906 395.461L23.5843 439.836M67.6906 395.461L0.516728 395.462M195.164 395.461L229.568 355.079M195.164 395.461L157.358 439.836M195.164 395.461H322.636M107.829 355.079H229.568M107.829 355.079L144.512 318.173M107.829 355.079H0.516728M229.568 355.079L261.01 318.173M229.568 355.079H351.307M209.154 253.138H316.419M209.154 253.138L237.779 224.339M209.154 253.138H101.891M209.154 253.138L178.167 284.313M316.419 253.138L340.953 224.339M316.419 253.138L289.858 284.313M316.419 253.138H423.682M237.779 224.339H340.953M237.779 224.339H134.605M237.779 224.339L264.302 197.656M340.953 224.339L363.687 197.656M340.953 224.339H444.128M311.902 149.766H404.487M311.902 149.766L333.34 128.197M311.902 149.766H219.316M311.902 149.766L288.944 172.862M404.487 149.766L422.863 128.197M404.487 149.766L384.81 172.862M404.487 149.766H497.072M333.34 128.197H422.863M333.34 128.197H243.817M333.34 128.197L353.406 108.01M422.863 128.197L440.062 108.01M422.863 128.197H512.386M389.913 71.2794H471.354M389.913 71.2794L406.568 54.5246M389.913 71.2794H308.473M389.913 71.2794L372.226 89.0754M471.354 71.2794L485.629 54.5246M471.354 71.2794L456.193 89.0754M471.354 71.2794H552.795M406.568 54.5246H485.629M406.568 54.5246H327.506M406.568 54.5246L422.277 38.7196M485.629 54.5246L499.094 38.7196M485.629 54.5246H564.691M451.162 9.65796H523.854M451.162 9.65796L464.472 -3.73227M451.162 9.65796H378.471M451.162 9.65796L437.118 23.7886M523.854 9.65796L535.262 -3.73227M523.854 9.65796L511.815 23.7886M523.854 9.65796H596.545M464.472 -3.73227H535.262M464.472 -3.73227H393.682M464.472 -3.73227L477.103 -16.4402M535.262 -3.73227L546.088 -16.4402M535.262 -3.73227H606.052M500.527 -40.0067H566.166M500.527 -40.0067L511.408 -50.9527M500.527 -40.0067H434.888M500.527 -40.0067L489.107 -28.5159M566.166 -40.0067L575.492 -50.9527M566.166 -40.0067L556.376 -28.5159M566.166 -40.0067H631.805M511.408 -50.9527H575.492M511.408 -50.9527H447.322M511.408 -50.9527L521.784 -61.3924M575.492 -50.9527L584.386 -61.3924M575.492 -50.9527H639.577M541.161 -80.8873H600.995M541.161 -80.8873L550.221 -90.0016M541.161 -80.8873H481.327M541.161 -80.8873L531.692 -71.3601M600.995 -80.8873L608.76 -90.0016M600.995 -80.8873L592.879 -71.3601M600.995 -80.8873H660.829M550.221 -90.0016H608.76M550.221 -90.0016H491.68M550.221 -90.0016L558.897 -98.7305M608.76 -90.0016L616.197 -98.7305M608.76 -90.0016H667.301M575.191 -115.125H630.165M575.191 -115.125L582.852 -122.832M575.191 -115.125H520.219M575.191 -115.125L567.213 -107.098M630.165 -115.125L629.324 -114.139L623.325 -107.098M630.165 -115.125L636.73 -122.832M630.165 -115.125H685.137M582.852 -122.832H636.73M582.852 -122.832H528.974M582.852 -122.832L590.214 -130.238M636.73 -122.832L643.041 -130.238M636.73 -122.832H690.609M604.108 -144.217H654.949M604.108 -144.217L610.67 -150.819M604.108 -144.217H553.266M604.108 -144.217L597.294 -137.362M654.949 -144.217L660.574 -150.819M654.949 -144.217L652.785 -141.676L651.325 -139.962L649.109 -137.362M654.949 -144.217H705.791M610.67 -150.819H660.574M610.67 -150.819H560.766M610.67 -150.819L616.995 -157.182M660.574 -150.819L662.631 -153.233L663.986 -154.823L665.996 -157.182M660.574 -150.819H710.478M628.982 -169.242H676.27M628.982 -169.242L633.264 -173.55L634.666 -174.961M628.982 -169.242H581.694M628.982 -169.242L623.842 -164.071L623.095 -163.319M676.27 -169.242L679.941 -173.55L680.543 -174.257L681.143 -174.961M676.27 -169.242L673.769 -166.307L671.225 -163.319M676.27 -169.242H723.558M634.666 -174.961H681.143M634.666 -174.961L640.159 -180.487M634.666 -174.961H588.19M681.143 -174.961H727.619M681.143 -174.961L685.851 -180.487M577.582 395.461H705.054M577.582 395.461L594.784 355.079M577.582 395.461H450.11M577.582 395.461L558.679 439.836M705.054 395.461L716.523 355.079M705.054 395.461L692.453 439.836M705.054 395.461H832.528M594.784 355.079H716.523M594.784 355.079H473.045M594.784 355.079L610.505 318.173M716.523 355.079L727.004 318.173M716.523 355.079H838.262M638.209 253.138H745.473M638.209 253.138L650.477 224.339M638.209 253.138H530.945M638.209 253.138L624.928 284.313M745.473 253.138L753.651 224.339M745.473 253.138L736.619 284.313M745.473 253.138H852.737M650.477 224.339H753.651M650.477 224.339H547.302M650.477 224.339L661.844 197.656M753.651 224.339L761.229 197.656M753.651 224.339H856.826M682.244 149.766H774.829M682.244 149.766L691.432 128.197M682.244 149.766H589.658M682.244 149.766L672.405 172.862M774.829 149.766L780.954 128.197M774.829 149.766L768.27 172.862M774.829 149.766H867.415M691.432 128.197H780.954M691.432 128.197H601.909M691.432 128.197L700.031 108.01M780.954 128.197L786.687 108.01M780.954 128.197H870.477M715.678 71.2794H797.118M715.678 71.2794L722.815 54.5246M715.678 71.2794H634.236M715.678 71.2794L708.097 89.0754M797.118 71.2794L801.876 54.5246M797.118 71.2794L792.064 89.0754M797.118 71.2794H878.559M722.815 54.5246H801.876M722.815 54.5246H643.753M722.815 54.5246L729.547 38.7196M801.876 54.5246L806.365 38.7196M801.876 54.5246H880.939M741.927 9.65796H814.618M741.927 9.65796L747.63 -3.73227M741.927 9.65796H669.236M741.927 9.65796L735.908 23.7886M814.618 9.65796L818.42 -3.73227M814.618 9.65796L810.606 23.7886M814.618 9.65796H887.309M747.63 -3.73227H818.42M747.63 -3.73227H676.842M747.63 -3.73227L753.044 -16.4402M818.42 -3.73227L822.029 -16.4402M818.42 -3.73227H889.21M763.083 -40.0067H828.722M763.083 -40.0067L767.746 -50.9527M763.083 -40.0067H697.444M763.083 -40.0067L758.189 -28.5159M828.722 -40.0067L831.831 -50.9527M828.722 -40.0067L825.458 -28.5159M828.722 -40.0067H894.361M767.746 -50.9527H831.831M767.746 -50.9527H703.661M767.746 -50.9527L769.439 -54.9248L772.193 -61.3924M831.831 -50.9527L834.796 -61.3924M831.831 -50.9527H895.916M780.498 -80.8873H840.332M780.498 -80.8873L784.381 -90.0016M780.498 -80.8873H720.663M780.498 -80.8873L777.471 -73.7817L776.439 -71.3601M840.332 -80.8873L841.316 -84.3521L842.92 -90.0016M840.332 -80.8873L837.626 -71.3601M840.332 -80.8873H900.166M784.381 -90.0016L784.853 -91.1137L788.099 -98.7305M784.381 -90.0016H842.92M784.381 -90.0016H725.84M842.92 -90.0016L843.863 -93.319L844.172 -94.4133L844.482 -95.5007L845.399 -98.7305M842.92 -90.0016H901.461M795.082 -115.125H850.054M795.082 -115.125L796.74 -119.017L797.15 -119.978L797.557 -120.934L797.962 -121.885L798.365 -122.832M795.082 -115.125H740.109M795.082 -115.125L791.663 -107.098M850.054 -115.125L851.704 -120.934L851.975 -121.885L852.243 -122.832M850.054 -115.125L847.776 -107.098M850.054 -115.125H905.028M798.365 -122.832H852.243M798.365 -122.832H744.487M798.365 -122.832L800.352 -127.495L800.743 -128.414L801.52 -130.238M852.243 -122.832L853.567 -127.495L853.829 -128.414L854.088 -129.329L854.347 -130.238M852.243 -122.832H906.122M807.475 -144.217H858.317M807.475 -144.217L810.288 -150.819M807.475 -144.217H756.633M807.475 -144.217L806.755 -142.527L805.662 -139.962L804.555 -137.362M858.317 -144.217L858.077 -143.374L856.617 -138.233L856.37 -137.362M858.317 -144.217L860.192 -150.819M858.317 -144.217H909.158M810.288 -150.819H860.192M810.288 -150.819H760.384M810.288 -150.819L812.998 -157.182M860.192 -150.819L860.877 -153.233L861.103 -154.03L861.329 -154.823L861.999 -157.182M860.192 -150.819H910.096M818.135 -169.242H865.423M818.135 -169.242L819.97 -173.55L820.571 -174.961M818.135 -169.242H770.847M818.135 -169.242L817.199 -167.046L816.885 -166.307L816.568 -165.565L815.612 -163.319M865.423 -169.242L865.63 -169.968L866.039 -171.41L866.445 -172.84L867.047 -174.961M865.423 -169.242L864.589 -166.307L864.38 -165.565L863.955 -164.071L863.742 -163.319M865.423 -169.242H912.711M820.571 -174.961H867.047M820.571 -174.961L822.635 -179.807L822.926 -180.487M820.571 -174.961H774.095M867.047 -174.961L867.247 -175.662L867.445 -176.361L867.643 -177.056L867.839 -177.748L868.423 -179.807L868.617 -180.487M867.047 -174.961H913.524M1087.47 395.461H1214.95M1087.47 395.461L1081.74 355.079M1087.47 395.461H960M1087.47 395.461L1093.77 439.836M1214.95 395.461L1203.48 355.079M1214.95 395.461L1227.55 439.836M1214.95 395.461H1342.42M1081.74 355.079H1203.48M1081.74 355.079H960M1081.74 355.079L1076.5 318.173M1203.48 355.079L1193 318.173M1203.48 355.079H1325.22M1067.26 253.138H1174.53M1067.26 253.138L1063.17 224.339M1067.26 253.138H960M1067.26 253.138L1071.69 284.313M1174.53 253.138L1166.35 224.339M1174.53 253.138L1183.38 284.313M1174.53 253.138H1281.79M1063.17 224.339H1166.35M1063.17 224.339H960M1063.17 224.339L1059.39 197.656M1166.35 224.339L1158.77 197.656M1166.35 224.339H1269.52M1052.59 149.766H1145.17M1052.59 149.766L1049.52 128.197M1052.59 149.766H960M1052.59 149.766L1055.87 172.862M1145.17 149.766L1139.05 128.197M1145.17 149.766L1151.73 172.862M1145.17 149.766H1237.76M1049.52 128.197H1139.05M1049.52 128.197H960M1049.52 128.197L1046.66 108.01M1139.05 128.197L1133.31 108.01M1139.05 128.197H1228.57M1041.44 71.2794H1122.88M1041.44 71.2794L1039.06 54.5246M1041.44 71.2794H960M1041.44 71.2794L1043.97 89.0754M1122.88 71.2794L1118.12 54.5246M1122.88 71.2794L1127.94 89.0754M1122.88 71.2794H1204.32M1039.06 54.5246H1118.12M1039.06 54.5246H960M1039.06 54.5246L1036.82 38.7196M1118.12 54.5246L1113.64 38.7196M1118.12 54.5246H1197.19M1032.69 9.65796H1105.38M1032.69 9.65796L1030.79 -3.73227M1032.69 9.65796H960M1032.69 9.65796L1034.7 23.7886M1105.38 9.65796L1101.58 -3.73227M1105.38 9.65796L1109.39 23.7886M1105.38 9.65796H1178.07M1030.79 -3.73227H1101.58M1030.79 -3.73227H960M1030.79 -3.73227L1028.98 -16.4402M1101.58 -3.73227L1097.97 -16.4402M1101.58 -3.73227H1172.37M1025.64 -40.0067H1091.28M1025.64 -40.0067L1024.08 -50.9527M1025.64 -40.0067H960M1025.64 -40.0067L1027.27 -28.5159M1091.28 -40.0067L1088.17 -50.9527M1091.28 -40.0067L1094.54 -28.5159M1091.28 -40.0067H1156.92M1024.08 -50.9527H1088.17M1024.08 -50.9527H960M1024.08 -50.9527L1022.6 -61.3924M1088.17 -50.9527L1085.2 -61.3924M1088.17 -50.9527H1152.25M1019.83 -80.8873H1079.67M1019.83 -80.8873L1018.54 -90.0016M1019.83 -80.8873H960M1019.83 -80.8873L1021.19 -71.3601M1079.67 -80.8873L1077.4 -88.8837L1077.08 -90.0016M1079.67 -80.8873L1082.37 -71.3601M1079.67 -80.8873H1139.5M1018.54 -90.0016L1018.38 -91.1137L1017.3 -98.7305M1018.54 -90.0016H1077.08M1018.54 -90.0016H960M1077.08 -90.0016L1076.14 -93.319L1075.83 -94.4133L1075.52 -95.5007L1074.6 -98.7305M1077.08 -90.0016H1135.62M1014.97 -115.125H1069.95M1014.97 -115.125L1013.88 -122.832M1014.97 -115.125H960M1014.97 -115.125L1015.39 -112.153L1015.54 -111.152L1015.68 -110.147L1015.97 -108.119L1016.11 -107.098M1069.95 -115.125L1068.3 -120.934L1067.76 -122.832M1069.95 -115.125L1072.22 -107.098M1069.95 -115.125H1124.92M1013.88 -122.832H1067.76M1013.88 -122.832H960M1013.88 -122.832L1012.83 -130.238M1067.76 -122.832L1066.43 -127.495L1066.17 -128.414L1065.91 -129.329L1065.65 -130.238M1067.76 -122.832H1121.63M1010.84 -144.217H1061.68M1010.84 -144.217L1009.9 -150.819M1010.84 -144.217H960M1010.84 -144.217L1011.82 -137.362M1061.68 -144.217L1061.92 -143.374L1063.38 -138.233L1063.63 -137.362M1061.68 -144.217L1059.81 -150.819M1061.68 -144.217H1112.52M1009.9 -150.819H1059.81M1009.9 -150.819H960M1009.9 -150.819L1009 -157.182M1059.81 -150.819L1059.12 -153.233L1058.9 -154.03L1058.67 -154.823L1058 -157.182M1059.81 -150.819H1109.71M1007.29 -169.242H1054.58M1007.29 -169.242L1006.48 -174.961M1007.29 -169.242H960M1007.29 -169.242L1008.13 -163.319M1054.58 -169.242L1054.37 -169.968L1053.96 -171.41L1053.76 -172.127L1053.35 -173.55L1053.15 -174.257L1052.95 -174.961M1054.58 -169.242L1055.41 -166.307L1055.62 -165.565L1056.05 -164.071L1056.26 -163.319M1054.58 -169.242H1101.86M1006.48 -174.961L1006.38 -175.662L1006.28 -176.361L1006.18 -177.056L1005.69 -180.487M1006.48 -174.961H1052.95M1006.48 -174.961H960M1052.95 -174.961H1099.43M1052.95 -174.961L1052.56 -176.361L1052.36 -177.056L1052.16 -177.748L1051.58 -179.807L1051.38 -180.487M1597.36 395.461H1724.84M1597.36 395.461L1568.69 355.079M1597.36 395.461H1469.89M1597.36 395.461L1628.87 439.836M1724.84 395.461L1690.43 355.079M1724.84 395.461L1762.64 439.836M1724.84 395.461H1852.31M1568.69 355.079H1690.43M1568.69 355.079H1446.95M1568.69 355.079L1542.49 318.173M1690.43 355.079L1658.99 318.173M1690.43 355.079H1812.17M1496.32 253.138H1603.58M1496.32 253.138L1475.87 224.339M1496.32 253.138H1389.05M1496.32 253.138L1518.45 284.313M1603.58 253.138L1579.05 224.339M1603.58 253.138L1630.14 284.313M1603.58 253.138H1710.85M1475.87 224.339H1579.05M1475.87 224.339H1372.7M1475.87 224.339L1456.93 197.656M1579.05 224.339L1556.31 197.656M1579.05 224.339H1682.22M1422.93 149.766H1515.51M1422.93 149.766L1407.61 128.197M1422.93 149.766H1330.34M1422.93 149.766L1439.33 172.862M1515.51 149.766L1497.14 128.197M1515.51 149.766L1535.19 172.862M1515.51 149.766H1608.1M1407.61 128.197H1497.14M1407.61 128.197H1318.09M1407.61 128.197L1393.28 108.01M1497.14 128.197L1479.94 108.01M1497.14 128.197H1586.66M1367.2 71.2794H1448.65M1367.2 71.2794L1355.31 54.5246M1367.2 71.2794H1285.76M1367.2 71.2794L1379.84 89.0754M1448.65 71.2794L1434.37 54.5246M1448.65 71.2794L1463.81 89.0754M1448.65 71.2794H1530.09M1355.31 54.5246H1434.37M1355.31 54.5246H1276.25M1355.31 54.5246L1344.09 38.7196M1434.37 54.5246L1420.91 38.7196M1434.37 54.5246H1513.43M1323.46 9.65796H1396.15M1323.46 9.65796L1313.95 -3.73227M1323.46 9.65796H1250.76M1323.46 9.65796L1333.49 23.7886M1396.15 9.65796L1384.74 -3.73227M1396.15 9.65796L1408.18 23.7886M1396.15 9.65796H1468.84M1313.95 -3.73227H1384.74M1313.95 -3.73227H1243.16M1313.95 -3.73227L1304.93 -16.4402M1384.74 -3.73227L1373.91 -16.4402M1384.74 -3.73227H1455.53M1288.2 -40.0067H1353.83M1288.2 -40.0067L1280.42 -50.9527M1288.2 -40.0067H1222.56M1288.2 -40.0067L1296.35 -28.5159M1353.83 -40.0067L1344.51 -50.9527M1353.83 -40.0067L1363.62 -28.5159M1353.83 -40.0067H1419.47M1280.42 -50.9527H1344.51M1280.42 -50.9527H1216.34M1280.42 -50.9527L1273.01 -61.3924M1344.51 -50.9527L1335.61 -61.3924M1344.51 -50.9527H1408.59M1259.17 -80.8873L1260 -79.7193L1260.83 -78.5453L1265.93 -71.3601M1259.17 -80.8873H1319M1259.17 -80.8873L1252.7 -90.0016M1259.17 -80.8873H1199.34M1319 -80.8873L1311.24 -90.0016M1319 -80.8873L1327.12 -71.3601M1319 -80.8873H1378.84M1252.7 -90.0016H1311.24M1252.7 -90.0016H1194.16M1252.7 -90.0016L1246.5 -98.7305M1311.24 -90.0016L1303.8 -98.7305M1311.24 -90.0016H1369.78M1234.86 -115.125H1289.84M1234.86 -115.125L1229.39 -122.832M1234.86 -115.125H1179.89M1234.86 -115.125L1240.56 -107.098M1289.84 -115.125L1285.7 -119.978L1283.27 -122.832M1289.84 -115.125L1296.67 -107.098M1289.84 -115.125H1344.81M1229.39 -122.832H1283.27M1229.39 -122.832H1175.51M1229.39 -122.832L1224.78 -129.329L1224.13 -130.238M1283.27 -122.832L1276.96 -130.238M1283.27 -122.832H1337.15M1214.21 -144.217H1265.05M1214.21 -144.217L1213.02 -145.891L1209.52 -150.819M1214.21 -144.217H1163.37M1214.21 -144.217L1215.41 -142.527L1217.84 -139.1L1219.08 -137.362M1265.05 -144.217L1259.43 -150.819M1265.05 -144.217L1267.21 -141.676L1268.67 -139.962L1270.89 -137.362M1265.05 -144.217H1315.89M1209.52 -150.819H1259.43M1209.52 -150.819H1159.62M1209.52 -150.819L1206.12 -155.614L1205 -157.182M1259.43 -150.819L1257.37 -153.233L1256.01 -154.823L1254 -157.182M1259.43 -150.819H1309.33M1196.44 -169.242H1243.73M1196.44 -169.242L1193.89 -172.84L1192.38 -174.961M1196.44 -169.242H1149.15M1196.44 -169.242L1200.65 -163.319M1243.73 -169.242L1240.06 -173.55L1239.46 -174.257L1238.86 -174.961M1243.73 -169.242L1246.23 -166.307L1248.78 -163.319M1243.73 -169.242H1291.02M1192.38 -174.961H1238.86M1192.38 -174.961L1190.4 -177.748L1189.43 -179.123L1188.94 -179.807L1188.46 -180.487M1192.38 -174.961H1145.9M1238.86 -174.961H1285.33M1238.86 -174.961L1234.15 -180.487M1888.57 224.339H1785.4M1888.57 224.339L1854.47 197.656M1888.57 224.339H1919.48M1888.57 224.339L1919.48 248.529M1793.27 149.766H1885.85M1793.27 149.766L1765.71 128.197M1793.27 149.766H1700.68M1793.27 149.766L1822.79 172.862M1885.85 149.766L1855.23 128.197M1885.85 149.766L1918.65 172.862M1885.85 149.766H1919.48M1765.71 128.197H1855.23M1765.71 128.197H1676.18M1765.71 128.197L1739.91 108.01M1855.23 128.197L1826.56 108.01M1855.23 128.197H1919.48M1692.97 71.2794H1774.41M1692.97 71.2794L1671.56 54.5246M1692.97 71.2794H1611.53M1692.97 71.2794L1715.71 89.0754M1774.41 71.2794L1750.62 54.5246M1774.41 71.2794L1799.68 89.0754M1774.41 71.2794H1855.85M1671.56 54.5246H1750.62M1671.56 54.5246H1592.49M1671.56 54.5246L1651.36 38.7196M1750.62 54.5246L1728.18 38.7196M1750.62 54.5246H1829.68M1614.22 9.65796H1686.91M1614.22 9.65796L1597.11 -3.73227M1614.22 9.65796H1541.53M1614.22 9.65796L1632.28 23.7886M1686.91 9.65796L1667.9 -3.73227M1686.91 9.65796L1706.97 23.7886M1686.91 9.65796H1759.6M1597.11 -3.73227H1667.9M1597.11 -3.73227H1526.32M1597.11 -3.73227L1580.87 -16.4402M1667.9 -3.73227L1649.85 -16.4402M1667.9 -3.73227H1738.69M1550.75 -40.0067H1616.39M1550.75 -40.0067L1536.76 -50.9527M1550.75 -40.0067H1485.11M1550.75 -40.0067L1565.43 -28.5159M1616.39 -40.0067L1600.85 -50.9527M1616.39 -40.0067L1632.71 -28.5159M1616.39 -40.0067H1682.03M1536.76 -50.9527H1600.85M1536.76 -50.9527H1472.68M1536.76 -50.9527L1523.42 -61.3924M1600.85 -50.9527L1586.02 -61.3924M1600.85 -50.9527H1664.93M1498.51 -80.8873H1558.34M1498.51 -80.8873L1486.86 -90.0016M1498.51 -80.8873H1438.67M1498.51 -80.8873L1510.68 -71.3601M1558.34 -80.8873L1545.4 -90.0016M1558.34 -80.8873L1571.87 -71.3601M1558.34 -80.8873H1618.18M1486.86 -90.0016H1545.4M1486.86 -90.0016H1428.32M1486.86 -90.0016L1475.7 -98.7305M1545.4 -90.0016L1533 -98.7305M1545.4 -90.0016H1603.94M1454.75 -115.125H1509.73M1454.75 -115.125L1444.9 -122.832M1454.75 -115.125H1399.78M1454.75 -115.125L1465.01 -107.098M1509.73 -115.125L1498.78 -122.832M1509.73 -115.125L1521.12 -107.098M1509.73 -115.125H1564.7M1444.9 -122.832H1498.78M1444.9 -122.832H1391.03M1444.9 -122.832L1435.44 -130.238M1498.78 -122.832L1488.27 -130.238M1498.78 -122.832H1552.66M1417.58 -144.217H1468.42M1417.58 -144.217L1409.14 -150.819M1417.58 -144.217H1366.73M1417.58 -144.217L1419.74 -142.527L1420.82 -141.676L1426.34 -137.362M1468.42 -144.217L1459.04 -150.819M1468.42 -144.217L1478.15 -137.362M1468.42 -144.217H1519.26M1409.14 -150.819H1459.04M1409.14 -150.819H1359.23M1409.14 -150.819L1401.01 -157.182M1459.04 -150.819L1450.01 -157.182M1459.04 -150.819H1508.95M1385.59 -169.242H1432.88M1385.59 -169.242L1378.29 -174.961M1385.59 -169.242H1338.31M1385.59 -169.242L1393.16 -163.319M1432.88 -169.242L1426.77 -173.55L1425.76 -174.257L1424.76 -174.961M1432.88 -169.242L1441.29 -163.319M1432.88 -169.242H1480.17M1378.29 -174.961H1424.76M1378.29 -174.961L1372.09 -179.807L1371.22 -180.487M1378.29 -174.961H1331.81M1424.76 -174.961H1471.24M1424.76 -174.961L1416.92 -180.487M1904.98 9.65796L1880.27 -3.73227M1904.98 9.65796H1832.29M1904.98 9.65796L1919.48 17.5129M1904.98 9.65796H1919.48M1880.27 -3.73227H1809.48M1880.27 -3.73227L1856.81 -16.4402M1880.27 -3.73227H1919.48M1813.31 -40.0067H1878.95M1813.31 -40.0067L1793.1 -50.9527M1813.31 -40.0067H1747.67M1813.31 -40.0067L1834.52 -28.5159M1878.95 -40.0067L1857.19 -50.9527M1878.95 -40.0067L1901.79 -28.5159M1878.95 -40.0067H1919.48M1793.1 -50.9527H1857.19M1793.1 -50.9527H1729.02M1793.1 -50.9527L1773.83 -61.3924M1857.19 -50.9527L1836.43 -61.3924M1857.19 -50.9527H1919.48M1737.84 -80.8873H1797.68M1737.84 -80.8873L1721.02 -90.0016M1737.84 -80.8873H1678.01M1737.84 -80.8873L1755.43 -71.3601M1797.68 -80.8873L1779.56 -90.0016M1797.68 -80.8873L1816.62 -71.3601M1797.68 -80.8873H1857.51M1721.02 -90.0016H1779.56M1721.02 -90.0016H1662.48M1721.02 -90.0016L1704.91 -98.7305M1779.56 -90.0016L1762.21 -98.7305M1779.56 -90.0016H1838.1M1674.64 -115.125H1729.62M1674.64 -115.125L1660.42 -122.832M1674.64 -115.125H1619.67M1674.64 -115.125L1689.46 -107.098M1729.62 -115.125L1714.3 -122.832M1729.62 -115.125L1745.57 -107.098M1729.62 -115.125H1784.59M1660.42 -122.832H1714.3M1660.42 -122.832H1606.54M1660.42 -122.832L1646.75 -130.238M1714.3 -122.832L1699.57 -130.238M1714.3 -122.832H1768.17M1620.94 -144.217H1671.78M1620.94 -144.217L1608.76 -150.819M1620.94 -144.217H1570.1M1620.94 -144.217L1633.6 -137.362M1671.78 -144.217L1658.66 -150.819M1671.78 -144.217L1685.41 -137.362M1671.78 -144.217H1722.63M1608.76 -150.819H1658.66M1608.76 -150.819H1558.85M1608.76 -150.819L1597.01 -157.182M1658.66 -150.819L1646.01 -157.182M1658.66 -150.819H1708.56M1574.75 -169.242H1622.04M1574.75 -169.242L1564.19 -174.961M1574.75 -169.242H1527.46M1574.75 -169.242L1585.68 -163.319M1622.04 -169.242L1610.67 -174.961M1622.04 -169.242L1633.81 -163.319M1622.04 -169.242H1669.33M1564.19 -174.961H1610.67M1564.19 -174.961L1553.99 -180.487M1564.19 -174.961H1517.71M1610.67 -174.961H1657.14M1610.67 -174.961L1599.68 -180.487M1894.53 -115.125L1875.93 -122.832M1894.53 -115.125H1839.56M1894.53 -115.125L1913.91 -107.098M1894.53 -115.125H1919.48M1875.93 -122.832H1822.05M1875.93 -122.832L1858.05 -130.238M1875.93 -122.832H1919.48M1824.31 -144.217H1875.15M1824.31 -144.217L1808.37 -150.819M1824.31 -144.217H1773.47M1824.31 -144.217L1840.86 -137.362M1875.15 -144.217L1858.28 -150.819M1875.15 -144.217L1892.67 -137.362M1875.15 -144.217H1919.48M1808.37 -150.819H1858.28M1808.37 -150.819H1758.47M1808.37 -150.819L1793.01 -157.182M1858.28 -150.819L1842.01 -157.182M1858.28 -150.819H1908.18M1763.9 -169.242H1811.19M1763.9 -169.242L1750.1 -174.961M1763.9 -169.242H1716.61M1763.9 -169.242L1778.2 -163.319M1811.19 -169.242L1796.57 -174.961M1811.19 -169.242L1826.33 -163.319M1811.19 -169.242H1858.48M1750.1 -174.961H1796.57M1750.1 -174.961L1736.76 -180.487M1750.1 -174.961H1703.62M1796.57 -174.961H1843.05M1796.57 -174.961L1782.45 -180.487M1826.33 -163.319L1842.01 -157.182M1826.33 -163.319H1874.46M1826.33 -163.319H1778.2M1858.48 -169.242L1843.05 -174.961M1858.48 -169.242L1874.46 -163.319M1858.48 -169.242H1905.77M1843.05 -174.961H1889.52M1843.05 -174.961L1828.14 -180.487M1782.45 -180.487H1736.76M1782.45 -180.487H1828.14M1782.45 -180.487L1768.79 -185.83M1874.46 -163.319L1891.01 -157.182M1874.46 -163.319H1919.48M1905.77 -169.242L1889.52 -174.961M1905.77 -169.242L1919.48 -164.412M1905.77 -169.242H1919.48M1889.52 -174.961L1873.83 -180.487M1889.52 -174.961H1919.48M1828.14 -180.487H1873.83M1828.14 -180.487L1813.73 -185.83M1873.83 -180.487L1858.66 -185.83M1873.83 -180.487H1919.48M1842.01 -157.182H1891.01M1842.01 -157.182H1793.01M1908.18 -150.819L1891.01 -157.182M1908.18 -150.819L1919.48 -146.63M1908.18 -150.819H1919.48M1891.01 -157.182H1919.48M1793.01 -157.182H1744.01M1793.01 -157.182L1778.2 -163.319M1778.2 -163.319H1730.07M1892.67 -137.362L1910.88 -130.238M1892.67 -137.362H1840.86M1892.67 -137.362H1919.48M1919.64 -144.217H1919.48M1910.88 -130.238H1858.05M1910.88 -130.238L1919.48 -126.872M1910.88 -130.238H1919.48M1858.05 -130.238H1805.22M1858.05 -130.238L1840.86 -137.362M1840.86 -137.362H1789.04M1633.81 -163.319L1646.01 -157.182M1633.81 -163.319H1681.94M1633.81 -163.319H1585.68M1669.33 -169.242L1657.14 -174.961M1669.33 -169.242L1681.94 -163.319M1669.33 -169.242H1716.61M1657.14 -174.961H1703.62M1657.14 -174.961L1645.37 -180.487M1599.68 -180.487H1645.37M1599.68 -180.487L1589.06 -185.83M1599.68 -180.487H1553.99M1681.94 -163.319L1695.01 -157.182M1681.94 -163.319H1730.07M1716.61 -169.242L1703.62 -174.961M1716.61 -169.242L1730.07 -163.319M1703.62 -174.961L1691.07 -180.487M1645.37 -180.487H1691.07M1645.37 -180.487L1633.99 -185.83M1730.07 -163.319L1744.01 -157.182M1736.76 -180.487H1691.07M1736.76 -180.487L1723.86 -185.83M1691.07 -180.487L1678.93 -185.83M1646.01 -157.182H1695.01M1646.01 -157.182H1597.01M1708.56 -150.819L1695.01 -157.182M1708.56 -150.819L1722.63 -144.217M1708.56 -150.819H1758.47M1695.01 -157.182H1744.01M1597.01 -157.182H1548.01M1597.01 -157.182L1585.68 -163.319M1744.01 -157.182L1758.47 -150.819M1585.68 -163.319H1537.55M1722.63 -144.217L1737.23 -137.362M1722.63 -144.217H1773.47M1758.47 -150.819L1773.47 -144.217M1773.47 -144.217L1789.04 -137.362M1685.41 -137.362L1699.57 -130.238M1685.41 -137.362H1737.23M1685.41 -137.362H1633.6M1737.23 -137.362L1752.4 -130.238M1737.23 -137.362H1789.04M1789.04 -137.362L1805.22 -130.238M1699.57 -130.238H1752.4M1699.57 -130.238H1646.75M1768.17 -122.832L1752.4 -130.238M1768.17 -122.832L1784.59 -115.125M1768.17 -122.832H1822.05M1752.4 -130.238H1805.22M1646.75 -130.238H1593.92M1646.75 -130.238L1633.6 -137.362M1805.22 -130.238L1822.05 -122.832M1633.6 -137.362H1581.78M1784.59 -115.125L1801.69 -107.098M1784.59 -115.125H1839.56M1822.05 -122.832L1839.56 -115.125M1839.56 -115.125L1857.8 -107.098M1745.57 -107.098L1762.21 -98.7305M1745.57 -107.098H1801.69M1745.57 -107.098H1689.46M1801.69 -107.098L1819.51 -98.7305M1801.69 -107.098H1857.8M1857.8 -107.098L1876.81 -98.7305M1857.8 -107.098H1913.91M1913.91 -107.098H1919.48M1913.91 -107.098L1919.48 -104.79M1762.21 -98.7305H1819.51M1762.21 -98.7305H1704.91M1838.1 -90.0016L1819.51 -98.7305M1838.1 -90.0016L1857.51 -80.8873M1838.1 -90.0016H1896.64M1819.51 -98.7305H1876.81M1704.91 -98.7305H1647.61M1704.91 -98.7305L1689.46 -107.098M1876.81 -98.7305L1896.64 -90.0016M1876.81 -98.7305H1919.48M1689.46 -107.098H1633.35M1857.51 -80.8873L1877.8 -71.3601M1857.51 -80.8873H1917.35M1896.64 -90.0016L1917.35 -80.8873M1896.64 -90.0016H1919.48M1919.78 -98.7305H1919.48M1917.35 -80.8873L1919.48 -79.9467M1917.35 -80.8873H1919.48M1816.62 -71.3601L1836.43 -61.3924M1816.62 -71.3601H1877.8M1816.62 -71.3601H1755.43M1877.8 -71.3601L1899.03 -61.3924M1877.8 -71.3601H1919.48M1920 -79.7193L1919.48 -79.9467M1836.43 -61.3924H1899.03M1836.43 -61.3924H1773.83M1899.03 -61.3924H1919.48M1899.03 -61.3924L1919.48 -51.7917M1773.83 -61.3924H1711.23M1773.83 -61.3924L1755.43 -71.3601M1755.43 -71.3601H1694.24M1901.79 -28.5159H1834.52M1901.79 -28.5159L1919.48 -19.6147M1901.79 -28.5159H1919.48M1919.97 -40.0067H1919.48M1834.52 -28.5159H1767.25M1834.52 -28.5159L1856.81 -16.4402M1919.68 -19.5167L1919.48 -19.6147M1441.29 -163.319L1450.01 -157.182M1441.29 -163.319H1489.42M1441.29 -163.319H1393.16M1480.17 -169.242L1471.24 -174.961M1480.17 -169.242L1489.42 -163.319M1480.17 -169.242H1527.46M1471.24 -174.961H1517.71M1471.24 -174.961L1462.61 -180.487M1416.92 -180.487H1462.61M1416.92 -180.487L1414.04 -182.511L1409.33 -185.83M1416.92 -180.487H1371.22M1489.42 -163.319L1499.01 -157.182M1489.42 -163.319H1537.55M1527.46 -169.242L1517.71 -174.961M1527.46 -169.242L1537.55 -163.319M1517.71 -174.961L1508.3 -180.487M1462.61 -180.487H1508.3M1462.61 -180.487L1454.26 -185.83M1537.55 -163.319L1548.01 -157.182M1553.99 -180.487L1544.13 -185.83M1553.99 -180.487H1508.3M1508.3 -180.487L1507.14 -181.165L1504.85 -182.511L1499.2 -185.83M1450.01 -157.182H1499.01M1450.01 -157.182H1401.01M1508.95 -150.819L1499.01 -157.182M1508.95 -150.819L1519.26 -144.217M1508.95 -150.819H1558.85M1499.01 -157.182H1548.01M1401.01 -157.182H1352.01M1401.01 -157.182L1393.16 -163.319M1548.01 -157.182L1558.85 -150.819M1393.16 -163.319H1345.03M1519.26 -144.217L1529.97 -137.362M1519.26 -144.217H1570.1M1558.85 -150.819L1560.23 -150.008L1570.1 -144.217M1570.1 -144.217L1581.78 -137.362M1478.15 -137.362L1479.39 -136.486L1488.27 -130.238M1478.15 -137.362H1529.97M1478.15 -137.362H1426.34M1529.97 -137.362L1541.09 -130.238M1529.97 -137.362H1581.78M1581.78 -137.362L1593.92 -130.238M1488.27 -130.238H1541.09M1488.27 -130.238H1435.44M1552.66 -122.832L1541.09 -130.238M1552.66 -122.832L1564.7 -115.125M1552.66 -122.832H1606.54M1541.09 -130.238H1593.92M1435.44 -130.238H1382.61M1435.44 -130.238L1426.34 -137.362M1593.92 -130.238L1606.54 -122.832M1426.34 -137.362H1374.52M1564.7 -115.125L1577.24 -107.098M1564.7 -115.125H1619.67M1606.54 -122.832L1619.67 -115.125M1619.67 -115.125L1633.35 -107.098M1521.12 -107.098L1533 -98.7305M1521.12 -107.098H1577.24M1521.12 -107.098H1465.01M1577.24 -107.098L1590.31 -98.7305M1577.24 -107.098H1633.35M1633.35 -107.098L1647.61 -98.7305M1533 -98.7305H1590.31M1533 -98.7305H1475.7M1603.94 -90.0016L1590.31 -98.7305M1603.94 -90.0016L1618.18 -80.8873M1603.94 -90.0016H1662.48M1590.31 -98.7305H1647.61M1475.7 -98.7305H1418.4M1475.7 -98.7305L1465.01 -107.098M1647.61 -98.7305L1662.48 -90.0016M1465.01 -107.098H1408.9M1618.18 -80.8873L1633.06 -71.3601M1618.18 -80.8873H1678.01M1662.48 -90.0016L1678.01 -80.8873M1678.01 -80.8873L1694.24 -71.3601M1571.87 -71.3601L1586.02 -61.3924M1571.87 -71.3601H1633.06M1571.87 -71.3601H1510.68M1633.06 -71.3601L1648.63 -61.3924M1633.06 -71.3601H1694.24M1694.24 -71.3601L1711.23 -61.3924M1586.02 -61.3924H1648.63M1586.02 -61.3924H1523.42M1664.93 -50.9527L1648.63 -61.3924M1664.93 -50.9527L1682.03 -40.0067M1664.93 -50.9527H1729.02M1648.63 -61.3924H1711.23M1523.42 -61.3924H1460.82M1523.42 -61.3924L1510.68 -71.3601M1711.23 -61.3924L1729.02 -50.9527M1510.68 -71.3601H1449.5M1682.03 -40.0067L1699.98 -28.5159M1682.03 -40.0067H1747.67M1729.02 -50.9527L1747.67 -40.0067M1747.67 -40.0067L1767.25 -28.5159M1632.71 -28.5159L1649.85 -16.4402M1632.71 -28.5159H1699.98M1632.71 -28.5159H1565.43M1699.98 -28.5159L1718.84 -16.4402M1699.98 -28.5159H1767.25M1767.25 -28.5159L1787.82 -16.4402M1649.85 -16.4402H1718.84M1649.85 -16.4402H1580.87M1738.69 -3.73227L1718.84 -16.4402M1738.69 -3.73227L1759.6 9.65796M1738.69 -3.73227H1809.48M1718.84 -16.4402H1787.82M1580.87 -16.4402H1511.88M1580.87 -16.4402L1565.43 -28.5159M1787.82 -16.4402L1809.48 -3.73227M1787.82 -16.4402H1856.81M1565.43 -28.5159H1498.16M1759.6 9.65796L1781.67 23.7886M1759.6 9.65796H1832.29M1809.48 -3.73227L1832.29 9.65796M1856.81 -16.4402H1919.48M1832.29 9.65796L1856.37 23.7886M1706.97 23.7886L1728.18 38.7196M1706.97 23.7886H1781.67M1706.97 23.7886H1632.28M1781.67 23.7886L1804.99 38.7196M1781.67 23.7886H1856.37M1856.37 23.7886L1881.81 38.7196M1856.37 23.7886H1919.48M1728.18 38.7196H1804.99M1728.18 38.7196H1651.36M1829.68 54.5246L1804.99 38.7196M1829.68 54.5246L1855.85 71.2794M1829.68 54.5246H1908.74M1804.99 38.7196H1881.81M1651.36 38.7196H1574.54M1651.36 38.7196L1632.28 23.7886M1881.81 38.7196L1908.74 54.5246M1881.81 38.7196H1919.48M1632.28 23.7886H1557.58M1855.85 71.2794L1883.65 89.0754M1855.85 71.2794H1919.48M1908.74 54.5246H1919.48M1908.74 54.5246L1919.48 60.8286M1799.68 89.0754L1826.56 108.01M1799.68 89.0754H1883.65M1799.68 89.0754H1715.71M1883.65 89.0754L1913.22 108.01M1883.65 89.0754H1919.48M1826.56 108.01H1913.22M1826.56 108.01H1739.91M1913.22 108.01L1919.48 112.02M1913.22 108.01H1919.48M1739.91 108.01H1653.25M1739.91 108.01L1715.71 89.0754M1715.71 89.0754H1631.74M1918.65 172.862H1822.79M1918.65 172.862H1919.48M1918.65 172.862L1919.48 173.448M1822.79 172.862H1726.92M1822.79 172.862L1854.47 197.656M1248.78 -163.319L1250.71 -161.044L1251.37 -160.278L1254 -157.182M1248.78 -163.319H1296.9M1248.78 -163.319H1200.65M1291.02 -169.242L1286.74 -173.55L1285.33 -174.961M1291.02 -169.242L1296.16 -164.071L1296.9 -163.319M1291.02 -169.242H1338.31M1285.33 -174.961H1331.81M1285.33 -174.961L1279.84 -180.487M1234.15 -180.487H1279.84M1234.15 -180.487L1232.42 -182.511L1229.6 -185.83M1234.15 -180.487H1188.46M1296.9 -163.319L1298.41 -161.806L1303.01 -157.182M1296.9 -163.319H1345.03M1338.31 -169.242L1331.81 -174.961M1338.31 -169.242L1345.03 -163.319M1331.81 -174.961L1327.08 -179.123L1325.53 -180.487M1279.84 -180.487H1325.53M1279.84 -180.487L1274.53 -185.83M1345.03 -163.319L1352.01 -157.182M1371.22 -180.487L1370.36 -181.165L1364.4 -185.83M1371.22 -180.487H1325.53M1325.53 -180.487L1323.23 -182.511L1319.46 -185.83M1254 -157.182H1303.01M1254 -157.182H1205M1309.33 -150.819L1303.01 -157.182M1309.33 -150.819L1315.89 -144.217M1309.33 -150.819H1359.23M1303.01 -157.182H1352.01M1205 -157.182H1156M1205 -157.182L1200.65 -163.319M1352.01 -157.182L1359.23 -150.819M1200.65 -163.319H1152.52M1315.89 -144.217L1320.12 -139.962L1320.98 -139.1L1322.71 -137.362M1315.89 -144.217H1366.73M1359.23 -150.819L1366.73 -144.217M1366.73 -144.217L1374.52 -137.362M1270.89 -137.362L1276.96 -130.238M1270.89 -137.362H1322.71M1270.89 -137.362H1219.08M1322.71 -137.362L1329.79 -130.238M1322.71 -137.362H1374.52M1374.52 -137.362L1382.61 -130.238M1276.96 -130.238H1329.79M1276.96 -130.238H1224.13M1337.15 -122.832L1332.51 -127.495L1331.6 -128.414L1329.79 -130.238M1337.15 -122.832L1344.81 -115.125M1337.15 -122.832H1391.03M1329.79 -130.238H1382.61M1224.13 -130.238H1171.31M1224.13 -130.238L1219.08 -137.362M1382.61 -130.238L1391.03 -122.832M1219.08 -137.362H1167.26M1344.81 -115.125L1352.79 -107.098M1344.81 -115.125H1399.78M1391.03 -122.832L1399.78 -115.125M1399.78 -115.125L1408.9 -107.098M1296.67 -107.098L1300.2 -102.958L1301.09 -101.909L1303.8 -98.7305M1296.67 -107.098H1352.79M1296.67 -107.098H1240.56M1352.79 -107.098L1361.1 -98.7305M1352.79 -107.098H1408.9M1408.9 -107.098L1418.4 -98.7305M1303.8 -98.7305H1361.1M1303.8 -98.7305H1246.5M1369.78 -90.0016L1361.1 -98.7305M1369.78 -90.0016L1378.84 -80.8873M1369.78 -90.0016H1428.32M1361.1 -98.7305H1418.4M1246.5 -98.7305H1189.2M1246.5 -98.7305L1244.99 -100.855L1240.56 -107.098M1418.4 -98.7305L1428.32 -90.0016M1240.56 -107.098H1184.45M1378.84 -80.8873L1388.31 -71.3601M1378.84 -80.8873H1438.67M1428.32 -90.0016L1438.67 -80.8873M1438.67 -80.8873L1449.5 -71.3601M1327.12 -71.3601L1335.61 -61.3924M1327.12 -71.3601H1388.31M1327.12 -71.3601H1265.93M1388.31 -71.3601L1398.22 -61.3924M1388.31 -71.3601H1449.5M1449.5 -71.3601L1460.82 -61.3924M1335.61 -61.3924H1398.22M1335.61 -61.3924H1273.01M1408.59 -50.9527L1398.22 -61.3924M1408.59 -50.9527L1419.47 -40.0067M1408.59 -50.9527H1472.68M1398.22 -61.3924H1460.82M1273.01 -61.3924H1210.41M1273.01 -61.3924L1265.93 -71.3601M1460.82 -61.3924L1472.68 -50.9527M1265.93 -71.3601H1204.75M1419.47 -40.0067L1430.89 -28.5159M1419.47 -40.0067H1485.11M1472.68 -50.9527L1485.11 -40.0067M1485.11 -40.0067L1498.16 -28.5159M1363.62 -28.5159L1373.91 -16.4402M1363.62 -28.5159H1430.89M1363.62 -28.5159H1296.35M1430.89 -28.5159L1442.9 -16.4402M1430.89 -28.5159H1498.16M1498.16 -28.5159L1511.88 -16.4402M1373.91 -16.4402H1442.9M1373.91 -16.4402H1304.93M1455.53 -3.73227L1442.9 -16.4402M1455.53 -3.73227L1468.84 9.65796M1455.53 -3.73227H1526.32M1442.9 -16.4402H1511.88M1304.93 -16.4402H1235.94M1304.93 -16.4402L1296.35 -28.5159M1511.88 -16.4402L1526.32 -3.73227M1296.35 -28.5159H1229.08M1468.84 9.65796L1482.88 23.7886M1468.84 9.65796H1541.53M1526.32 -3.73227L1541.53 9.65796M1541.53 9.65796L1557.58 23.7886M1408.18 23.7886L1420.91 38.7196M1408.18 23.7886H1482.88M1408.18 23.7886H1333.49M1482.88 23.7886L1497.72 38.7196M1482.88 23.7886H1557.58M1557.58 23.7886L1574.54 38.7196M1420.91 38.7196H1497.72M1420.91 38.7196H1344.09M1513.43 54.5246L1497.72 38.7196M1513.43 54.5246L1530.09 71.2794M1513.43 54.5246H1592.49M1497.72 38.7196H1574.54M1344.09 38.7196H1267.27M1344.09 38.7196L1333.49 23.7886M1574.54 38.7196L1592.49 54.5246M1333.49 23.7886H1258.79M1530.09 71.2794L1547.77 89.0754M1530.09 71.2794H1611.53M1592.49 54.5246L1611.53 71.2794M1611.53 71.2794L1631.74 89.0754M1463.81 89.0754L1479.94 108.01M1463.81 89.0754H1547.77M1463.81 89.0754H1379.84M1547.77 89.0754L1566.59 108.01M1547.77 89.0754H1631.74M1631.74 89.0754L1653.25 108.01M1479.94 108.01H1566.59M1479.94 108.01H1393.28M1586.66 128.197L1566.59 108.01M1586.66 128.197L1608.1 149.766M1586.66 128.197H1676.18M1566.59 108.01H1653.25M1393.28 108.01H1306.63M1393.28 108.01L1379.84 89.0754M1653.25 108.01L1676.18 128.197M1379.84 89.0754H1295.87M1608.1 149.766L1631.06 172.862M1608.1 149.766H1700.68M1676.18 128.197L1700.68 149.766M1700.68 149.766L1726.92 172.862M1535.19 172.862L1556.31 197.656M1535.19 172.862H1631.06M1535.19 172.862H1439.33M1631.06 172.862L1655.7 197.656M1631.06 172.862H1726.92M1726.92 172.862L1755.08 197.656M1556.31 197.656H1655.7M1556.31 197.656H1456.93M1682.22 224.339L1655.7 197.656M1682.22 224.339L1710.85 253.138M1682.22 224.339H1785.4M1655.7 197.656H1755.08M1456.93 197.656H1357.54M1456.93 197.656L1439.33 172.862M1755.08 197.656L1785.4 224.339M1755.08 197.656H1854.47M1439.33 172.862H1343.46M1710.85 253.138L1741.83 284.313M1710.85 253.138H1818.11M1785.4 224.339L1818.11 253.138M1854.47 197.656H1919.48M1818.11 253.138L1853.52 284.313M1818.11 253.138H1919.48M1630.14 284.313L1658.99 318.173M1630.14 284.313H1741.83M1630.14 284.313H1518.45M1741.83 284.313L1775.49 318.173M1741.83 284.313H1853.52M1853.52 284.313L1891.99 318.173M1853.52 284.313H1919.48M1658.99 318.173H1775.49M1658.99 318.173H1542.49M1812.17 355.079L1775.49 318.173M1812.17 355.079L1852.31 395.461M1812.17 355.079H1919.48M1775.49 318.173H1891.99M1542.49 318.173H1425.99M1542.49 318.173L1518.45 284.313M1891.99 318.173H1919.48M1891.99 318.173L1919.48 342.38M1518.45 284.313H1406.76M1852.31 395.461L1896.42 439.836M1852.31 395.461H1919.48M1762.64 439.836L1804.38 488.826M1762.64 439.836H1896.42M1762.64 439.836H1628.87M1896.42 439.836L1919.48 463.044M1896.42 439.836H1919.48M1804.38 488.826H1663.65M1804.38 488.826L1919.48 488.825M1663.65 488.826H1522.92M1663.65 488.826L1628.87 439.836M1628.87 439.836H1495.09M1056.26 -163.319L1056.47 -162.564L1056.69 -161.806L1056.9 -161.044L1057.12 -160.278L1057.78 -157.962L1058 -157.182M1056.26 -163.319H1104.39M1056.26 -163.319H1008.13M1101.86 -169.242L1100.03 -173.55L1099.43 -174.961M1101.86 -169.242L1103.43 -165.565L1104.39 -163.319M1101.86 -169.242H1149.15M1099.43 -174.961H1145.9M1099.43 -174.961L1097.66 -179.123L1097.07 -180.487M1051.38 -180.487L1051.19 -181.165L1050.43 -183.848L1049.87 -185.83M1051.38 -180.487H1097.07M1051.38 -180.487H1005.69M1104.39 -163.319L1104.71 -162.564L1105.03 -161.806L1105.36 -161.044L1105.68 -160.278L1107 -157.182M1104.39 -163.319H1152.52M1149.15 -169.242L1146.71 -173.55L1145.9 -174.961M1149.15 -169.242L1152.52 -163.319M1145.9 -174.961L1144.32 -177.748L1143.15 -179.807L1142.77 -180.487M1097.07 -180.487L1096.79 -181.165L1096.21 -182.511L1095.64 -183.848L1095.36 -184.511L1094.8 -185.83M1097.07 -180.487H1142.77M1152.52 -163.319L1155.12 -158.738L1156 -157.182M1188.46 -180.487L1185.6 -184.511L1184.67 -185.83M1188.46 -180.487H1142.77M1142.77 -180.487L1140.11 -185.172L1139.73 -185.83M1058 -157.182H1107M1058 -157.182H1009M1109.71 -150.819L1107 -157.182M1109.71 -150.819L1112.52 -144.217M1109.71 -150.819H1159.62M1107 -157.182H1156M1009 -157.182H960M1009 -157.182L1008.13 -163.319M1156 -157.182L1159.62 -150.819M1008.13 -163.319H960M1112.52 -144.217L1113.25 -142.527L1114.34 -139.962L1115.45 -137.362M1112.52 -144.217H1163.37M1159.62 -150.819L1160.08 -150.008L1163.37 -144.217M1163.37 -144.217L1163.85 -143.374L1164.33 -142.527L1164.81 -141.676L1167.26 -137.362M1063.63 -137.362L1065.65 -130.238M1063.63 -137.362H1115.45M1063.63 -137.362H1011.82M1115.45 -137.362L1118.48 -130.238M1115.45 -137.362H1167.26M1167.26 -137.362L1170.28 -132.045L1170.79 -131.144L1171.31 -130.238M1065.65 -130.238H1118.48M1065.65 -130.238H1012.83M1121.63 -122.832L1122.04 -121.885L1122.44 -120.934L1122.85 -119.978L1124.92 -115.125M1121.63 -122.832L1120.04 -126.572L1119.65 -127.495L1119.26 -128.414L1118.48 -130.238M1121.63 -122.832H1175.51M1118.48 -130.238H1171.31M1012.83 -130.238H960M1012.83 -130.238L1011.82 -137.362M1171.31 -130.238L1175.51 -122.832M1011.82 -137.362H960M1124.92 -115.125L1127.9 -108.119L1128.34 -107.098M1124.92 -115.125H1179.89M1175.51 -122.832L1176.59 -120.934L1179.89 -115.125M1179.89 -115.125L1181.58 -112.153L1184.45 -107.098M1072.22 -107.098L1073.4 -102.958L1073.7 -101.909L1074.6 -98.7305M1072.22 -107.098H1128.34M1072.22 -107.098H1016.11M1128.34 -107.098L1131.9 -98.7305M1128.34 -107.098H1184.45M1184.45 -107.098L1189.2 -98.7305M1074.6 -98.7305H1131.9M1074.6 -98.7305H1017.3M1135.62 -90.0016L1131.9 -98.7305M1135.62 -90.0016L1139.5 -80.8873M1135.62 -90.0016H1194.16M1131.9 -98.7305H1189.2M1017.3 -98.7305H960M1017.3 -98.7305L1017 -100.855L1016.4 -105.039L1016.11 -107.098M1189.2 -98.7305L1194.16 -90.0016M1016.11 -107.098H960M1139.5 -80.8873L1142.53 -73.7817L1143.56 -71.3601M1139.5 -80.8873H1199.34M1194.16 -90.0016L1199.34 -80.8873M1199.34 -80.8873L1202.01 -76.1768L1204.75 -71.3601M1082.37 -71.3601L1085.2 -61.3924M1082.37 -71.3601H1143.56M1082.37 -71.3601H1021.19M1143.56 -71.3601L1147.81 -61.3924M1143.56 -71.3601H1204.75M1204.75 -71.3601L1210.41 -61.3924M1085.2 -61.3924H1147.81M1085.2 -61.3924H1022.6M1152.25 -50.9527L1151.12 -53.6083L1147.81 -61.3924M1152.25 -50.9527L1156.92 -40.0067M1152.25 -50.9527H1216.34M1147.81 -61.3924H1210.41M1022.6 -61.3924H960M1022.6 -61.3924L1021.19 -71.3601M1210.41 -61.3924L1216.34 -50.9527M1021.19 -71.3601H960M1156.92 -40.0067L1161.81 -28.5159M1156.92 -40.0067H1222.56M1216.34 -50.9527L1222.56 -40.0067M1222.56 -40.0067L1229.08 -28.5159M1094.54 -28.5159L1097.97 -16.4402M1094.54 -28.5159H1161.81M1094.54 -28.5159H1027.27M1161.81 -28.5159L1166.96 -16.4402M1161.81 -28.5159H1229.08M1229.08 -28.5159L1235.94 -16.4402M1097.97 -16.4402H1166.96M1097.97 -16.4402H1028.98M1172.37 -3.73227L1166.96 -16.4402M1172.37 -3.73227L1178.07 9.65796M1172.37 -3.73227H1243.16M1166.96 -16.4402H1235.94M1028.98 -16.4402H960M1028.98 -16.4402L1027.48 -27.0392L1027.27 -28.5159M1235.94 -16.4402L1243.16 -3.73227M1027.27 -28.5159H960M1178.07 9.65796L1184.09 23.7886M1178.07 9.65796H1250.76M1243.16 -3.73227L1248.82 6.24429L1250.76 9.65796M1250.76 9.65796L1258.79 23.7886M1109.39 23.7886L1113.64 38.7196M1109.39 23.7886H1184.09M1109.39 23.7886H1034.7M1184.09 23.7886L1190.45 38.7196M1184.09 23.7886H1258.79M1258.79 23.7886L1267.27 38.7196M1113.64 38.7196H1190.45M1113.64 38.7196H1036.82M1197.19 54.5246L1190.45 38.7196M1197.19 54.5246L1204.32 71.2794M1197.19 54.5246H1276.25M1190.45 38.7196H1267.27M1036.82 38.7196H960M1036.82 38.7196L1034.7 23.7886M1267.27 38.7196L1276.25 54.5246M1034.7 23.7886H960M1204.32 71.2794L1211.9 89.0754M1204.32 71.2794H1285.76M1276.25 54.5246L1285.76 71.2794M1285.76 71.2794L1295.87 89.0754M1127.94 89.0754L1133.31 108.01M1127.94 89.0754H1211.9M1127.94 89.0754H1043.97M1211.9 89.0754L1219.97 108.01M1211.9 89.0754H1295.87M1295.87 89.0754L1306.63 108.01M1133.31 108.01H1219.97M1133.31 108.01H1046.66M1228.57 128.197L1219.97 108.01M1228.57 128.197L1237.76 149.766M1228.57 128.197H1318.09M1219.97 108.01H1306.63M1046.66 108.01H960M1046.66 108.01L1043.97 89.0754M1306.63 108.01L1318.09 128.197M1043.97 89.0754H960M1237.76 149.766L1247.6 172.862M1237.76 149.766H1330.34M1318.09 128.197L1330.34 149.766M1330.34 149.766L1343.46 172.862M1151.73 172.862L1158.77 197.656M1151.73 172.862H1247.6M1151.73 172.862H1055.87M1247.6 172.862L1258.16 197.656M1247.6 172.862H1343.46M1343.46 172.862L1357.54 197.656M1158.77 197.656H1258.16M1158.77 197.656H1059.39M1269.52 224.339L1258.16 197.656M1269.52 224.339L1281.79 253.138M1269.52 224.339H1372.7M1258.16 197.656H1357.54M1059.39 197.656H960M1059.39 197.656L1055.87 172.862M1357.54 197.656L1372.7 224.339M1055.87 172.862H960M1281.79 253.138L1295.07 284.313M1281.79 253.138H1389.05M1372.7 224.339L1389.05 253.138M1389.05 253.138L1406.76 284.313M1183.38 284.313L1193 318.173M1183.38 284.313H1295.07M1183.38 284.313H1071.69M1295.07 284.313L1309.49 318.173M1295.07 284.313H1406.76M1406.76 284.313L1425.99 318.173M1193 318.173H1309.49M1193 318.173H1076.5M1325.22 355.079L1309.49 318.173M1325.22 355.079L1342.42 395.461M1325.22 355.079H1446.95M1309.49 318.173H1425.99M1076.5 318.173H960M1076.5 318.173L1071.69 284.313M1425.99 318.173L1446.95 355.079M1071.69 284.313H960M1342.42 395.461L1361.32 439.836M1342.42 395.461H1469.89M1446.95 355.079L1469.89 395.461M1469.89 395.461L1495.09 439.836M1227.55 439.836L1241.46 488.826M1227.55 439.836H1361.32M1227.55 439.836H1093.77M1361.32 439.836L1382.19 488.826M1361.32 439.836H1495.09M1495.09 439.836L1522.92 488.826M1382.19 488.826H1241.46M1382.19 488.826H1522.92M1241.46 488.826H1100.73M1100.73 488.826H960M1100.73 488.826L1093.77 439.836M1093.77 439.836H960M863.742 -163.319L863.527 -162.564L863.312 -161.806L863.095 -161.044L862.878 -160.278L862.441 -158.738L862.22 -157.962L861.999 -157.182M863.742 -163.319H911.871M863.742 -163.319H815.612M912.711 -169.242L913.524 -174.961M912.711 -169.242L911.871 -163.319M912.711 -169.242H960M913.524 -174.961L913.623 -175.662L913.723 -176.361L913.821 -177.056L914.309 -180.487M913.524 -174.961H960M868.617 -180.487L868.809 -181.165L869.571 -183.848L870.134 -185.83M868.617 -180.487H914.309M868.617 -180.487H822.926M911.871 -163.319L911.763 -162.564L911.656 -161.806L911.547 -161.044L910.999 -157.182M911.871 -163.319H960M960 -169.242V-174.961M960 -169.242V-163.319M960 -174.961V-180.487M914.309 -180.487H960M914.309 -180.487L914.595 -182.511L914.691 -183.181L915.067 -185.83M960 -163.319V-157.182M1005.69 -180.487L1005.4 -182.511L1005.31 -183.181L1005.21 -183.848L1005.12 -184.511L1005.03 -185.172L1004.93 -185.83M1005.69 -180.487H960M960 -180.487V-185.83M861.999 -157.182H910.999M861.999 -157.182H812.998M910.096 -150.819L909.98 -150.008L909.865 -149.192L909.158 -144.217M910.096 -150.819L910.999 -157.182M910.096 -150.819H960M910.999 -157.182H960M812.998 -157.182H763.998M812.998 -157.182L813.66 -158.738L813.99 -159.509L814.316 -160.278L814.643 -161.044L814.967 -161.806L815.291 -162.564L815.612 -163.319M960 -157.182V-150.819M815.612 -163.319H767.483M909.158 -144.217L908.185 -137.362M909.158 -144.217H960M960 -150.819V-144.217M960 -144.217V-137.362M856.37 -137.362L854.347 -130.238M856.37 -137.362H908.185M856.37 -137.362H804.555M908.185 -137.362L907.174 -130.238M908.185 -137.362H960M960 -137.362V-130.238M854.347 -130.238H907.174M854.347 -130.238H801.52M906.122 -122.832L907.174 -130.238M906.122 -122.832L905.028 -115.125M906.122 -122.832H960M907.174 -130.238H960M801.52 -130.238H748.694M801.52 -130.238L804.555 -137.362M960 -130.238V-122.832M804.555 -137.362H752.74M905.028 -115.125L904.606 -112.153L904.177 -109.136L903.887 -107.098M905.028 -115.125H960M960 -122.832V-115.125M960 -115.125V-107.098M847.776 -107.098L846.599 -102.958L846.302 -101.909L845.399 -98.7305M847.776 -107.098H903.887M847.776 -107.098H791.663M903.887 -107.098L903.595 -105.039L903.002 -100.855L902.7 -98.7305M903.887 -107.098H960M960 -107.098V-98.7305M845.399 -98.7305H902.7M845.399 -98.7305H788.099M901.461 -90.0016L901.617 -91.1137L902.7 -98.7305M901.461 -90.0016L900.166 -80.8873M901.461 -90.0016H960M902.7 -98.7305H960M788.099 -98.7305H730.798M788.099 -98.7305L791.663 -107.098M960 -98.7305V-90.0016M791.663 -107.098H735.55M900.166 -80.8873L898.813 -71.3601M900.166 -80.8873H960M960 -90.0016V-80.8873M960 -80.8873V-71.3601M837.626 -71.3601L834.796 -61.3924M837.626 -71.3601H898.813M837.626 -71.3601H776.439M898.813 -71.3601L897.398 -61.3924M898.813 -71.3601H960M960 -71.3601V-61.3924M834.796 -61.3924H897.398M834.796 -61.3924H772.193M895.916 -50.9527L897.398 -61.3924M895.916 -50.9527L894.361 -40.0067M895.916 -50.9527H960M897.398 -61.3924H960M772.193 -61.3924H709.591M772.193 -61.3924L776.439 -71.3601M960 -61.3924V-50.9527M776.439 -71.3601H715.252M894.361 -40.0067L892.729 -28.5159M894.361 -40.0067H960M960 -50.9527V-40.0067M960 -40.0067V-28.5159M825.458 -28.5159L822.029 -16.4402M825.458 -28.5159H892.729M825.458 -28.5159H758.189M892.729 -28.5159L891.015 -16.4402M892.729 -28.5159H960M960 -28.5159V-16.4402M822.029 -16.4402H891.015M822.029 -16.4402H753.044M889.21 -3.73227L891.015 -16.4402M889.21 -3.73227L887.309 9.65796M889.21 -3.73227H960M891.015 -16.4402H960M753.044 -16.4402H684.059M753.044 -16.4402L758.189 -28.5159M960 -16.4402V-3.73227M758.189 -28.5159H690.918M887.309 9.65796L885.302 23.7886M887.309 9.65796H960M960 -3.73227V9.65796M960 9.65796V23.7886M810.606 23.7886L806.365 38.7196M810.606 23.7886H885.302M810.606 23.7886H735.908M885.302 23.7886L883.182 38.7196M885.302 23.7886H960M960 23.7886V38.7196M806.365 38.7196H883.182M806.365 38.7196H729.547M880.939 54.5246L883.182 38.7196M880.939 54.5246L878.559 71.2794M880.939 54.5246H960M883.182 38.7196H960M729.547 38.7196H652.73M729.547 38.7196L735.908 23.7886M960 38.7196V54.5246M735.908 23.7886H661.21M878.559 71.2794L876.032 89.0754M878.559 71.2794H960M960 54.5246V71.2794M960 71.2794V89.0754M792.064 89.0754L786.687 108.01M792.064 89.0754H876.032M792.064 89.0754H708.097M876.032 89.0754L873.344 108.01M876.032 89.0754H960M960 89.0754V108.01M786.687 108.01H873.344M786.687 108.01H700.031M870.477 128.197L873.344 108.01M870.477 128.197L867.415 149.766M870.477 128.197H960M873.344 108.01H960M700.031 108.01H613.375M700.031 108.01L708.097 89.0754M960 108.01V128.197M708.097 89.0754H624.129M867.415 149.766L864.135 172.862M867.415 149.766H960M960 128.197V149.766M960 149.766V172.862M768.27 172.862L761.229 197.656M768.27 172.862H864.135M768.27 172.862H672.405M864.135 172.862L860.615 197.656M864.135 172.862H960M960 172.862V197.656M761.229 197.656H860.615M761.229 197.656H661.844M856.826 224.339L860.615 197.656M856.826 224.339L852.737 253.138M856.826 224.339H960M860.615 197.656H960M661.844 197.656H562.458M661.844 197.656L672.405 172.862M960 197.656V224.339M672.405 172.862H576.54M852.737 253.138L848.309 284.313M852.737 253.138H960M960 224.339V253.138M960 253.138V284.313M736.619 284.313L727.004 318.173M736.619 284.313H848.309M736.619 284.313H624.928M848.309 284.313L843.502 318.173M848.309 284.313H960M960 284.313V318.173M727.004 318.173H843.502M727.004 318.173H610.505M838.262 355.079L843.502 318.173M838.262 355.079L832.528 395.461M838.262 355.079H960M843.502 318.173H960M610.505 318.173H494.007M610.505 318.173L624.928 284.313M960 318.173V355.079M624.928 284.313H513.239M832.528 395.461L826.226 439.836M832.528 395.461H960M960 355.079V395.461M960 395.461V439.836M692.453 439.836L678.541 488.826M692.453 439.836H826.226M692.453 439.836H558.679M826.226 439.836L819.27 488.826M826.226 439.836H960M960 439.836V488.826M819.27 488.826H678.541M819.27 488.826H960M678.541 488.826H537.81M537.81 488.826H397.08M537.81 488.826L558.679 439.836M558.679 439.836H424.905M671.225 -163.319L668.634 -160.278L665.996 -157.182M671.225 -163.319H719.354M671.225 -163.319H623.095M723.558 -169.242L727.619 -174.961M723.558 -169.242L719.354 -163.319M723.558 -169.242H770.847M727.619 -174.961H774.095M727.619 -174.961L730.574 -179.123L731.542 -180.487M685.851 -180.487H731.542M685.851 -180.487L687.576 -182.511L690.402 -185.83M685.851 -180.487H640.159M719.354 -163.319L714.997 -157.182M719.354 -163.319H767.483M770.847 -169.242L774.095 -174.961M770.847 -169.242L767.483 -163.319M774.095 -174.961L775.678 -177.748L776.848 -179.807L777.233 -180.487M731.542 -180.487H777.233M731.542 -180.487L734.399 -184.511L735.335 -185.83M767.483 -163.319L764.88 -158.738L763.998 -157.182M822.926 -180.487L823.214 -181.165L823.787 -182.511L824.639 -184.511L825.202 -185.83M822.926 -180.487H777.233M777.233 -180.487L777.618 -181.165L778.384 -182.511L780.268 -185.83M665.996 -157.182H714.997M665.996 -157.182H616.995M710.478 -150.819L711.053 -151.627L711.624 -152.432L713.883 -155.614L714.997 -157.182M710.478 -150.819L706.979 -145.891L705.791 -144.217M710.478 -150.819H760.384M714.997 -157.182H763.998M616.995 -157.182H567.994M616.995 -157.182L621.59 -161.806L623.095 -163.319M763.998 -157.182L760.384 -150.819M623.095 -163.319H574.965M705.791 -144.217L705.193 -143.374L704.592 -142.527L702.772 -139.962L702.158 -139.1L700.925 -137.362M705.791 -144.217H756.633M760.384 -150.819L759.922 -150.008L756.633 -144.217M756.633 -144.217L756.155 -143.374L755.673 -142.527L755.19 -141.676L752.74 -137.362M649.109 -137.362L643.041 -130.238M649.109 -137.362H700.925M649.109 -137.362H597.294M700.925 -137.362L695.867 -130.238M700.925 -137.362H752.74M752.74 -137.362L748.694 -130.238M643.041 -130.238H695.867M643.041 -130.238H590.214M690.609 -122.832L695.867 -130.238M690.609 -122.832L685.137 -115.125M690.609 -122.832H744.487M695.867 -130.238H748.694M590.214 -130.238H537.388M590.214 -130.238L597.294 -137.362M748.694 -130.238L744.487 -122.832M597.294 -137.362H545.478M685.137 -115.125L679.438 -107.098M685.137 -115.125H740.109M744.487 -122.832L743.409 -120.934L740.109 -115.125M740.109 -115.125L738.421 -112.153L736.707 -109.136L735.55 -107.098M623.325 -107.098L619.798 -102.958L616.197 -98.7305M623.325 -107.098H679.438M623.325 -107.098H567.213M679.438 -107.098L673.497 -98.7305M679.438 -107.098H735.55M735.55 -107.098L730.798 -98.7305M616.197 -98.7305H673.497M616.197 -98.7305H558.897M667.301 -90.0016L673.497 -98.7305M667.301 -90.0016L660.829 -80.8873M667.301 -90.0016H725.84M673.497 -98.7305H730.798M558.897 -98.7305H501.596M558.897 -98.7305L567.213 -107.098M730.798 -98.7305L725.84 -90.0016M567.213 -107.098H511.101M660.829 -80.8873L659.166 -78.5453L654.066 -71.3601M660.829 -80.8873H720.663M725.84 -90.0016L720.663 -80.8873M720.663 -80.8873L720 -79.7193L717.988 -76.1768L715.252 -71.3601M592.879 -71.3601L584.386 -61.3924M592.879 -71.3601H654.066M592.879 -71.3601H531.692M654.066 -71.3601L646.989 -61.3924M654.066 -71.3601H715.252M715.252 -71.3601L709.591 -61.3924M584.386 -61.3924H646.989M584.386 -61.3924H521.784M639.577 -50.9527L644.25 -57.5342L646.989 -61.3924M639.577 -50.9527L631.805 -40.0067M639.577 -50.9527H703.661M646.989 -61.3924H709.591M521.784 -61.3924H459.182M521.784 -61.3924L531.692 -71.3601M709.591 -61.3924L703.661 -50.9527M531.692 -71.3601H470.505M631.805 -40.0067L623.647 -28.5159M631.805 -40.0067H697.444M703.661 -50.9527L697.444 -40.0067M697.444 -40.0067L690.918 -28.5159M556.376 -28.5159L546.088 -16.4402M556.376 -28.5159H623.647M556.376 -28.5159H489.107M623.647 -28.5159L615.074 -16.4402M623.647 -28.5159H690.918M690.918 -28.5159L684.059 -16.4402M546.088 -16.4402H615.074M546.088 -16.4402H477.103M606.052 -3.73227L615.074 -16.4402M606.052 -3.73227L596.545 9.65796M606.052 -3.73227H676.842M615.074 -16.4402H684.059M477.103 -16.4402H408.118M477.103 -16.4402L489.107 -28.5159M684.059 -16.4402L676.842 -3.73227M489.107 -28.5159H421.836M596.545 9.65796L586.513 23.7886M596.545 9.65796H669.236M676.842 -3.73227L669.236 9.65796M669.236 9.65796L661.21 23.7886M511.815 23.7886L499.094 38.7196M511.815 23.7886H586.513M511.815 23.7886H437.118M586.513 23.7886L575.912 38.7196M586.513 23.7886H661.21M661.21 23.7886L652.73 38.7196M499.094 38.7196H575.912M499.094 38.7196H422.277M564.691 54.5246L575.912 38.7196M564.691 54.5246L552.795 71.2794M564.691 54.5246H643.753M575.912 38.7196H652.73M422.277 38.7196H345.459M422.277 38.7196L437.118 23.7886M652.73 38.7196L643.753 54.5246M437.118 23.7886H362.421M552.795 71.2794L540.161 89.0754M552.795 71.2794H634.236M643.753 54.5246L634.236 71.2794M634.236 71.2794L624.129 89.0754M456.193 89.0754L440.062 108.01M456.193 89.0754H540.161M456.193 89.0754H372.226M540.161 89.0754L526.718 108.01M540.161 89.0754H624.129M624.129 89.0754L613.375 108.01M440.062 108.01H526.718M440.062 108.01H353.406M512.386 128.197L526.718 108.01M512.386 128.197L497.072 149.766M512.386 128.197H601.909M526.718 108.01H613.375M353.406 108.01H266.749M353.406 108.01L372.226 89.0754M613.375 108.01L601.909 128.197M372.226 89.0754H288.258M497.072 149.766L480.675 172.862M497.072 149.766H589.658M601.909 128.197L589.658 149.766M589.658 149.766L576.54 172.862M384.81 172.862L363.687 197.656M384.81 172.862H480.675M384.81 172.862H288.944M480.675 172.862L463.073 197.656M480.675 172.862H576.54M576.54 172.862L562.458 197.656M363.687 197.656H463.073M363.687 197.656H264.302M444.128 224.339L463.073 197.656M444.128 224.339L423.682 253.138M444.128 224.339H547.302M463.073 197.656H562.458M264.302 197.656H164.916M264.302 197.656L288.944 172.862M562.458 197.656L547.302 224.339M288.944 172.862H193.079M423.682 253.138L401.548 284.313M423.682 253.138H530.945M547.302 224.339L530.945 253.138M530.945 253.138L513.239 284.313M289.858 284.313L261.01 318.173M289.858 284.313H401.548M289.858 284.313H178.167M401.548 284.313L377.509 318.173M401.548 284.313H513.239M513.239 284.313L494.007 318.173M261.01 318.173H377.509M261.01 318.173H144.512M351.307 355.079L377.509 318.173M351.307 355.079L322.636 395.461M351.307 355.079H473.045M377.509 318.173H494.007M144.512 318.173H28.0139M144.512 318.173L178.167 284.313M494.007 318.173L473.045 355.079M178.167 284.313H66.4772M322.636 395.461L291.132 439.836M322.636 395.461H450.11M473.045 355.079L450.11 395.461M450.11 395.461L424.905 439.836M157.358 439.836L115.621 488.826M157.358 439.836H291.132M157.358 439.836H23.5843M291.132 439.836L256.351 488.826M291.132 439.836H424.905M424.905 439.836L397.08 488.826M256.351 488.826H115.621M256.351 488.826H397.08M115.621 488.826L0.516728 488.825M23.5843 439.836L0.516728 463.044M23.5843 439.836H0.516728M478.707 -163.319L469.993 -157.182M478.707 -163.319H526.836M478.707 -163.319H430.578M534.405 -169.242L541.714 -174.961M534.405 -169.242L526.836 -163.319M534.405 -169.242H581.694M541.714 -174.961H588.19M541.714 -174.961L548.776 -180.487M503.084 -180.487H548.776M503.084 -180.487L505.959 -182.511L510.671 -185.83M503.084 -180.487H457.393M526.836 -163.319L518.994 -157.182M526.836 -163.319H574.965M581.694 -169.242L588.19 -174.961M581.694 -169.242L574.965 -163.319M588.19 -174.961L592.919 -179.123L594.468 -180.487M548.776 -180.487L549.642 -181.165L555.604 -185.83M548.776 -180.487H594.468M574.965 -163.319L567.994 -157.182M640.159 -180.487L645.469 -185.83M640.159 -180.487H594.468M594.468 -180.487L596.768 -182.511L600.537 -185.83M469.993 -157.182H518.994M469.993 -157.182H420.992M510.862 -150.819L518.994 -157.182M510.862 -150.819L502.424 -144.217M510.862 -150.819H560.766M518.994 -157.182H567.994M420.992 -157.182H371.992M420.992 -157.182L430.578 -163.319M567.994 -157.182L560.766 -150.819M430.578 -163.319H382.449M502.424 -144.217L500.265 -142.527L493.663 -137.362M502.424 -144.217H553.266M560.766 -150.819L553.266 -144.217M553.266 -144.217L545.478 -137.362M441.848 -137.362L440.606 -136.486L431.735 -130.238M441.848 -137.362H493.663M441.848 -137.362H390.033M493.663 -137.362L484.561 -130.238M493.663 -137.362H545.478M545.478 -137.362L544.485 -136.486L537.388 -130.238M431.735 -130.238H484.561M431.735 -130.238H378.908M475.096 -122.832L484.561 -130.238M475.096 -122.832L465.246 -115.125M475.096 -122.832H528.974M484.561 -130.238H537.388M378.908 -130.238H326.081M378.908 -130.238L390.033 -137.362M537.388 -130.238L528.974 -122.832M390.033 -137.362H338.218M465.246 -115.125L454.988 -107.098M465.246 -115.125H520.219M528.974 -122.832L520.219 -115.125M520.219 -115.125L511.101 -107.098M398.876 -107.098L386.996 -98.7305M398.876 -107.098H454.988M398.876 -107.098H342.763M454.988 -107.098L444.296 -98.7305M454.988 -107.098H511.101M511.101 -107.098L501.596 -98.7305M386.996 -98.7305H444.296M386.996 -98.7305H329.694M433.141 -90.0016L444.296 -98.7305M433.141 -90.0016L421.492 -80.8873M433.141 -90.0016H491.68M444.296 -98.7305H501.596M329.694 -98.7305H272.394M329.694 -98.7305L342.763 -107.098M501.596 -98.7305L491.68 -90.0016M342.763 -107.098H286.651M421.492 -80.8873L409.318 -71.3601M421.492 -80.8873H481.327M491.68 -90.0016L481.327 -80.8873M481.327 -80.8873L470.505 -71.3601M348.131 -71.3601L333.977 -61.3924M348.131 -71.3601H409.318M348.131 -71.3601H286.943M409.318 -71.3601L396.579 -61.3924M409.318 -71.3601H470.505M470.505 -71.3601L459.182 -61.3924M333.977 -61.3924H396.579M333.977 -61.3924H271.375M383.238 -50.9527L396.579 -61.3924M383.238 -50.9527L369.249 -40.0067M383.238 -50.9527H447.322M396.579 -61.3924H459.182M271.375 -61.3924H208.773M271.375 -61.3924L286.943 -71.3601M459.182 -61.3924L447.322 -50.9527M286.943 -71.3601H225.756M369.249 -40.0067L354.565 -28.5159M369.249 -40.0067H434.888M447.322 -50.9527L434.888 -40.0067M434.888 -40.0067L421.836 -28.5159M287.294 -28.5159L270.148 -16.4402M287.294 -28.5159H354.565M287.294 -28.5159H220.025M354.565 -28.5159L339.132 -16.4402M354.565 -28.5159H421.836M421.836 -28.5159L408.118 -16.4402M270.148 -16.4402H339.132M270.148 -16.4402H201.162M322.892 -3.73227L339.132 -16.4402M322.892 -3.73227L305.78 9.65796M322.892 -3.73227H393.682M339.132 -16.4402H408.118M201.162 -16.4402H132.177M201.162 -16.4402L220.025 -28.5159M408.118 -16.4402L393.682 -3.73227M220.025 -28.5159H152.754M305.78 9.65796L287.723 23.7886M305.78 9.65796H378.471M393.682 -3.73227L378.471 9.65796M378.471 9.65796L362.421 23.7886M213.025 23.7886L191.824 38.7196M213.025 23.7886H287.723M213.025 23.7886H138.329M287.723 23.7886L268.641 38.7196M287.723 23.7886H362.421M362.421 23.7886L345.459 38.7196M191.824 38.7196H268.641M191.824 38.7196H115.006M248.444 54.5246L268.641 38.7196M248.444 54.5246L227.032 71.2794M248.444 54.5246H327.506M268.641 38.7196H345.459M115.006 38.7196H38.1884M115.006 38.7196L138.329 23.7886M345.459 38.7196L327.506 54.5246M138.329 23.7886H63.6307M227.032 71.2794L204.29 89.0754M227.032 71.2794H308.473M327.506 54.5246L308.473 71.2794M308.473 71.2794L288.258 89.0754M120.322 89.0754L93.4367 108.01M120.322 89.0754H204.29M120.322 89.0754H36.3544M204.29 89.0754L180.093 108.01M204.29 89.0754H288.258M288.258 89.0754L266.749 108.01M93.4367 108.01H180.093M93.4367 108.01H6.78035M154.294 128.197L180.093 108.01M154.294 128.197L126.731 149.766M154.294 128.197H243.817M180.093 108.01H266.749M6.78035 108.01L36.3544 89.0754M6.78035 108.01H0.516728M6.78035 108.01L0.516728 112.02M266.749 108.01L243.817 128.197M36.3544 89.0754H0.516728M126.731 149.766L97.2146 172.862M126.731 149.766H219.316M243.817 128.197L219.316 149.766M219.316 149.766L193.079 172.862M1.34928 172.862H97.2146M1.34928 172.862H0.516728M1.34928 172.862L0.516728 173.448M97.2146 172.862L65.5297 197.656M97.2146 172.862H193.079M193.079 172.862L164.916 197.656M31.4301 224.339L65.5297 197.656M31.4301 224.339H134.605M31.4301 224.339H0.516728M31.4301 224.339L0.516728 248.529M65.5297 197.656H164.916M65.5297 197.656H0.516728M164.916 197.656L134.605 224.339M134.605 224.339L101.891 253.138M101.891 253.138L66.4772 284.313M101.891 253.138H0.516728M66.4772 284.313L28.0139 318.173M66.4772 284.313H0.516728M28.0139 318.173H0.516728M28.0139 318.173L0.516728 342.38M286.19 -163.319L273.99 -157.182M286.19 -163.319H334.32M286.19 -163.319H238.061M345.252 -169.242L355.809 -174.961M345.252 -169.242L334.32 -163.319M345.252 -169.242H392.541M355.809 -174.961H402.285M355.809 -174.961L366.01 -180.487M320.318 -180.487H366.01M320.318 -180.487L330.939 -185.83M320.318 -180.487H274.627M334.32 -163.319L322.991 -157.182M334.32 -163.319H382.449M392.541 -169.242L402.285 -174.961M392.541 -169.242L382.449 -163.319M402.285 -174.961L411.701 -180.487M366.01 -180.487L367.26 -181.165L375.872 -185.83M366.01 -180.487H411.701M382.449 -163.319L371.992 -157.182M457.393 -180.487L465.737 -185.83M457.393 -180.487H411.701M411.701 -180.487L412.856 -181.165L420.804 -185.83M273.99 -157.182H322.991M273.99 -157.182H224.99M311.244 -150.819L322.991 -157.182M311.244 -150.819L299.057 -144.217M311.244 -150.819H361.15M322.991 -157.182H371.992M224.99 -157.182H175.989M224.99 -157.182L238.061 -163.319M371.992 -157.182L361.15 -150.819M238.061 -163.319H189.932M299.057 -144.217L286.403 -137.362M299.057 -144.217H349.899M361.15 -150.819L359.765 -150.008L349.899 -144.217M349.899 -144.217L338.218 -137.362M234.588 -137.362L220.428 -130.238M234.588 -137.362H286.403M234.588 -137.362H182.773M286.403 -137.362L273.255 -130.238M286.403 -137.362H338.218M338.218 -137.362L326.081 -130.238M220.428 -130.238H273.255M220.428 -130.238H167.602M259.583 -122.832L273.255 -130.238M259.583 -122.832L245.356 -115.125M259.583 -122.832H313.461M273.255 -130.238H326.081M167.602 -130.238H114.775M167.602 -130.238L182.773 -137.362M326.081 -130.238L313.461 -122.832M182.773 -137.362H130.957M245.356 -115.125L230.539 -107.098M245.356 -115.125H300.328M313.461 -122.832L300.328 -115.125M300.328 -115.125L286.651 -107.098M174.426 -107.098L157.793 -98.7305M174.426 -107.098H230.539M174.426 -107.098H118.313M230.539 -107.098L215.094 -98.7305M230.539 -107.098H286.651M286.651 -107.098L272.394 -98.7305M157.793 -98.7305H215.094M157.793 -98.7305H100.493M198.981 -90.0016L215.094 -98.7305M198.981 -90.0016L182.156 -80.8873M198.981 -90.0016H257.521M215.094 -98.7305H272.394M100.493 -98.7305H43.1927M100.493 -98.7305L118.313 -107.098M272.394 -98.7305L257.521 -90.0016M118.313 -107.098H62.2015M182.156 -80.8873L164.569 -71.3601M182.156 -80.8873H241.99M257.521 -90.0016L241.99 -80.8873M241.99 -80.8873L225.756 -71.3601M103.382 -71.3601L83.568 -61.3924M103.382 -71.3601H164.569M103.382 -71.3601H42.1963M164.569 -71.3601L146.17 -61.3924M164.569 -71.3601H225.756M225.756 -71.3601L208.773 -61.3924M83.568 -61.3924H146.17M126.899 -50.9527L146.17 -61.3924M126.899 -50.9527L106.694 -40.0067M126.899 -50.9527H190.984M146.17 -61.3924H208.773M208.773 -61.3924L190.984 -50.9527M42.1963 -71.3601H0.516728M106.694 -40.0067L85.483 -28.5159M106.694 -40.0067H172.332M190.984 -50.9527L172.332 -40.0067M172.332 -40.0067L152.754 -28.5159M18.2122 -28.5159H85.483M18.2122 -28.5159H0.516728M18.2122 -28.5159L0.516728 -19.6147M85.483 -28.5159L63.191 -16.4402M85.483 -28.5159H152.754M152.754 -28.5159L132.177 -16.4402M39.7336 -3.73227L63.191 -16.4402M39.7336 -3.73227L15.0159 9.65796M39.7336 -3.73227H110.523M39.7336 -3.73227H0.516728M63.191 -16.4402H132.177M63.191 -16.4402H0.516728M132.177 -16.4402L110.523 -3.73227M0.321833 -19.5167L0.516728 -19.6147M15.0159 9.65796H87.7068M15.0159 9.65796H0.516728M15.0159 9.65796L0.516728 17.5128M110.523 -3.73227L87.7068 9.65796M87.7068 9.65796L63.6307 23.7886M63.6307 23.7886L38.1884 38.7196M63.6307 23.7886H0.516728M11.2589 54.5246L38.1884 38.7196M11.2589 54.5246H0.516728M11.2589 54.5246L0.516728 60.8286M38.1884 38.7196H0.516728M93.6736 -163.319L77.988 -157.182M93.6736 -163.319H141.803M93.6736 -163.319H45.5435M156.099 -169.242L169.905 -174.961M156.099 -169.242L141.803 -163.319M156.099 -169.242H203.387M169.905 -174.961H216.38M169.905 -174.961L183.243 -180.487M137.552 -180.487H183.243M137.552 -180.487L151.207 -185.83M137.552 -180.487H91.8605M141.803 -163.319L126.989 -157.182M141.803 -163.319H189.932M203.387 -169.242L216.38 -174.961M203.387 -169.242L189.932 -163.319M216.38 -174.961L228.935 -180.487M183.243 -180.487H228.935M183.243 -180.487L196.14 -185.83M189.932 -163.319L175.989 -157.182M274.627 -180.487L286.006 -185.83M274.627 -180.487H228.935M228.935 -180.487L241.073 -185.83M77.988 -157.182H126.989M77.988 -157.182H28.9874M111.628 -150.819L126.989 -157.182M111.628 -150.819L95.6905 -144.217M111.628 -150.819H161.532M126.989 -157.182H175.989M28.9874 -157.182L45.5435 -163.319M28.9874 -157.182H0.516728M175.989 -157.182L161.532 -150.819M45.5435 -163.319H0.516728M95.6905 -144.217L79.1424 -137.362M95.6905 -144.217H146.532M161.532 -150.819L146.532 -144.217M146.532 -144.217L130.957 -137.362M27.3273 -137.362L9.12209 -130.238M27.3273 -137.362H79.1424M27.3273 -137.362H0.516728M79.1424 -137.362L61.9486 -130.238M79.1424 -137.362H130.957M130.957 -137.362L114.775 -130.238M44.0703 -122.832L61.9486 -130.238M44.0703 -122.832L25.4653 -115.125M44.0703 -122.832H97.9483M44.0703 -122.832H0.516728M61.9486 -130.238H9.12209M61.9486 -130.238H114.775M9.12209 -130.238L0.516728 -126.872M9.12209 -130.238H0.516728M114.775 -130.238L97.9483 -122.832M25.4653 -115.125L6.08872 -107.098M25.4653 -115.125H80.4377M25.4653 -115.125H0.516728M97.9483 -122.832L80.4377 -115.125M80.4377 -115.125L62.2015 -107.098M6.08872 -107.098H62.2015M6.08872 -107.098L0.516728 -104.79M6.08872 -107.098H0.516728M62.2015 -107.098L43.1927 -98.7305M23.3614 -90.0016L43.1927 -98.7305M23.3614 -90.0016L2.65358 -80.8873M23.3614 -90.0016H0.516728M43.1927 -98.7305H0.516728M0.216886 -98.7305H0.516728M2.65358 -80.8873H0.516728M2.65358 -80.8873L0.516728 -79.9467M0 -79.7193L0.516728 -79.9467M14.2343 -169.242L30.4756 -174.961M14.2343 -169.242H0.516728M14.2343 -169.242L0.516728 -164.412M30.4756 -174.961L46.1691 -180.487M30.4756 -174.961H0.516728M91.8605 -180.487L106.274 -185.83M91.8605 -180.487H46.1691M46.1691 -180.487L61.341 -185.83M46.1691 -180.487H0.516728M1589.06 -185.83H1633.99M1589.06 -185.83H1544.13M1622.99 -190.997L1625.7 -189.721L1633.99 -185.83M1622.99 -190.997H1667.19M1633.99 -185.83H1678.93M1667.19 -190.997L1670.08 -189.721L1671.54 -189.08L1678.93 -185.83M1678.93 -185.83H1723.86M1723.86 -185.83H1768.79M1544.13 -185.83H1499.2M1768.79 -185.83H1813.73M1813.73 -185.83L1799.78 -190.997M1813.73 -185.83H1858.66M1799.78 -190.997H1843.98M1409.33 -185.83H1454.26M1409.33 -185.83H1364.4M1446.19 -190.997L1448.18 -189.721L1449.19 -189.08L1454.26 -185.83M1446.19 -190.997H1490.39M1454.26 -185.83H1499.2M1490.39 -190.997L1499.2 -185.83M1364.4 -185.83H1319.46M1229.6 -185.83H1274.53M1229.6 -185.83H1184.67M1269.39 -190.997L1270.03 -190.361L1270.66 -189.721L1271.3 -189.08L1274.53 -185.83M1269.39 -190.997H1313.59M1274.53 -185.83H1319.46M1313.59 -190.997L1319.46 -185.83M1184.67 -185.83H1139.73M1049.87 -185.83H1094.8M1049.87 -185.83H1004.93M1092.6 -190.997L1094.8 -185.83M1092.6 -190.997H1136.8M1094.8 -185.83H1139.73M1136.8 -190.997L1137.16 -190.361L1137.52 -189.721L1137.89 -189.08L1139.73 -185.83M1004.93 -185.83H960M870.134 -185.83H915.067M870.134 -185.83H825.202M915.801 -190.997L915.067 -185.83M915.801 -190.997H960M915.067 -185.83H960M960 -190.997V-185.83M825.202 -185.83H780.268M690.402 -185.83H735.335M690.402 -185.83H645.469M739.004 -190.997L738.099 -189.721L736.264 -187.138L735.335 -185.83M739.004 -190.997H783.203M735.335 -185.83H780.268M783.203 -190.997L782.841 -190.361L782.479 -189.721L782.114 -189.08L780.268 -185.83M645.469 -185.83H600.537M510.671 -185.83H555.604M510.671 -185.83H465.737M562.208 -190.997L560.577 -189.721L559.757 -189.08L555.604 -185.83M562.208 -190.997H606.407M555.604 -185.83H600.537M606.407 -190.997L605.684 -190.361L600.537 -185.83M465.737 -185.83H420.804M330.939 -185.83H375.872M330.939 -185.83H286.006M385.411 -190.997L383.056 -189.721L381.87 -189.08L375.872 -185.83M385.411 -190.997H429.611M375.872 -185.83H420.804M429.611 -190.997L428.525 -190.361L420.804 -185.83M286.006 -185.83H241.073M151.207 -185.83H196.14M151.207 -185.83H106.274M208.615 -190.997L196.14 -185.83M208.615 -190.997H252.814M196.14 -185.83H241.073M252.814 -190.997L249.915 -189.721L248.456 -189.08L241.073 -185.83M106.274 -185.83H61.341M31.8189 -190.997L16.4082 -185.83M31.8189 -190.997H76.0181M31.8189 -190.997H0.516728M16.4082 -185.83H61.341M16.4082 -185.83L0.516728 -180.5M16.4082 -185.83H0.516728M76.0181 -190.997L72.394 -189.721L61.341 -185.83M1843.98 -190.997L1847.61 -189.721L1858.66 -185.83M1858.66 -185.83H1903.59M1903.59 -185.83L1919.48 -180.5M1903.59 -185.83H1919.48M1919.48 60.8286V54.5246M1919.48 60.8286V71.2794M1919.48 54.5246V38.7196M1919.48 71.2794V74.4024V89.0754M1919.48 89.0754V108.01M1919.48 -61.3924V-71.3601M1919.48 -61.3924V-51.7917M1919.48 -190.997V-185.83M1919.48 -185.83V-180.5M1919.48 -180.5L1919.52 -180.487H1919.48M1919.48 -180.5V-180.487M1919.48 -180.487V-174.961M1919.48 -174.961V-169.242M1919.48 -169.242V-164.412M1919.48 -164.412V-163.319M1919.48 -163.319V-157.182M1919.48 -157.182V-150.819M1919.48 -150.819V-146.63M1919.48 -146.63V-144.217M1919.48 -144.217V-137.362M1919.48 -137.362V-130.238M1919.48 -130.238V-126.872M1919.48 -126.872V-122.832M1919.48 -122.832V-115.125M1919.48 -115.125V-107.098M1919.48 -107.098V-104.79M1919.48 -104.79V-98.7305M1919.48 -98.7305V-90.0016M1919.48 -90.0016V-80.8873M1919.48 -80.8873V-79.9467M1919.48 -79.9467V-71.3601M1919.48 -50.9527V-40.0067M1919.48 -50.9527V-51.7917M1919.48 -40.0067V-28.5159M1919.48 -28.5159V-19.6147M1919.48 -19.6147V-16.4402M1919.48 -16.4402V-3.73227M1919.48 -3.73227V9.65796M1919.48 9.65796V17.5129M1919.48 17.5129V23.7886M1919.48 23.7886V38.7196M1919.48 108.01V112.02M1919.48 112.02V128.197M1919.48 128.197V149.766M1919.48 149.766V172.862M1919.48 172.862V173.448M1919.48 173.448V197.656M1919.48 197.656V224.339M1919.48 224.339V248.529M1919.48 248.529V253.138M1919.48 253.138V284.313M1919.48 284.313V318.173M1919.48 318.173V342.38M1919.48 342.38V355.079M1919.48 355.079V395.461M1919.48 395.461V439.836M1919.48 439.836V463.044M1919.48 463.044V488.825M1919.48 488.825V489H0.516728V488.825M0.516728 -50.9527V-40.0067M0.516728 -50.9527V-51.7917M0.516728 -51.7917V-61.3924M0.516728 -61.3924V-71.3601M0.516728 -71.3601V-79.9467M0.516728 -79.9467V-80.8873M0.516728 -80.8873V-90.0016M0.516728 -90.0016V-98.7305M0.516728 -98.7305V-104.79M0.516728 -104.79V-107.098M0.516728 -107.098V-115.125M0.516728 -115.125V-122.832M0.516728 -122.832V-126.872M0.516728 -126.872V-130.238M0.516728 -130.238V-137.362M0.516728 -137.362V-144.217M0.516728 -144.217V-146.63M0.516728 -146.63V-150.819M0.516728 -150.819V-157.182M0.516728 -157.182V-163.319M0.516728 -163.319V-164.412M0.516728 -164.412V-169.242M0.516728 -169.242V-174.961M0.516728 -174.961V-180.487M0.516728 -180.487H0.477747L0.516728 -180.5M0.516728 -180.487V-180.5M0.516728 -180.5V-185.83M0.516728 -185.83V-190.997M0.516728 488.825V463.044M0.516728 463.044V439.836M0.516728 439.836V395.462M0.516728 395.462V355.079M0.516728 355.079V342.38M0.516728 342.38V318.173M0.516728 318.173V284.313M0.516728 284.313V253.138M0.516728 253.138V248.529M0.516728 248.529V224.339M0.516728 224.339V197.656M0.516728 197.656V173.448M0.516728 173.448V172.862M0.516728 172.862V149.766M0.516728 149.766V128.197M0.516728 128.197V112.02M0.516728 112.02V108.01M0.516728 108.01V89.0754M0.516728 89.0754V71.2794M0.516728 71.2794V60.8286M0.516728 60.8286V54.5246M0.516728 54.5246V38.7196M0.516728 38.7196V23.7886M0.516728 23.7886V17.5128M0.516728 17.5128V9.65796M0.516728 9.65796V-3.73227M0.516728 -3.73227V-16.4402M0.516728 -16.4402V-19.6147M0.516728 -19.6147V-28.5159M0.516728 -28.5159V-40.0067" stroke="url(#paint0_radial_214_1417)" stroke-width="1.2" stroke-miterlimit="10" stroke-linecap="round" stroke-linejoin="round"/>
<defs>
<radialGradient id="paint0_radial_214_1417" cx="0" cy="0" r="1" gradientUnits="userSpaceOnUse" gradientTransform="translate(960 23) rotate(90) scale(314.5 877.994)">
<stop offset="0.05" stop-color="white"/>
<stop offset="0.801432" stop-color="white" stop-opacity="0"/>
</radialGradient>
</defs>
</svg>
